{
	"asset":{
		"generator":"Khronos glTF Blender I/O v4.0.43",
		"version":"2.0"
	},
	"extensionsUsed":[
		"KHR_materials_transmission",
		"KHR_materials_ior"
	],
	"scene":0,
	"scenes":[
		{
			"name":"Scene",
			"nodes":[
				0,
				1,
				2,
				3,
				4,
				5,
				6,
				7,
				8,
				9,
				10,
				11,
				12,
				13
			]
		}
	],
	"nodes":[
		{
			"mesh":0,
			"name":"Circle",
			"rotation":[
				0.18301285803318024,
				-0.6830126643180847,
				0.6830126643180847,
				0.18301285803318024
			],
			"scale":[
				3.5212769508361816,
				3.5212769508361816,
				3.5212771892547607
			],
			"translation":[
				1.5444391965866089,
				-1.1818866729736328,
				1.825875163078308
			]
		},
		{
			"mesh":1,
			"name":"Plane",
			"rotation":[
				0,
				-0.9659258723258972,
				0,
				0.2588193118572235
			],
			"scale":[
				3.5212769508361816,
				3.5212771892547607,
				3.5212769508361816
			],
			"translation":[
				0.8694854974746704,
				2.3393895626068115,
				0.656821608543396
			]
		},
		{
			"mesh":2,
			"name":"Circle.001",
			"rotation":[
				-0.29454901814460754,
				-0.9199203848838806,
				0.07892421633005142,
				0.24649205803871155
			],
			"scale":[
				3.5212771892547607,
				3.52127742767334,
				3.5212769508361816
			],
			"translation":[
				3.275907516479492,
				5.877323150634766,
				-0.7325277328491211
			]
		},
		{
			"mesh":3,
			"name":"Plane.002",
			"rotation":[
				0.7646962404251099,
				-0.590129017829895,
				-0.204899862408638,
				0.15812477469444275
			],
			"scale":[
				3.521277666091919,
				3.5212771892547607,
				3.5212769508361816
			],
			"translation":[
				0.8694854974746704,
				2.3393895626068115,
				0.656821608543396
			]
		},
		{
			"mesh":4,
			"name":"Plane.001",
			"rotation":[
				0,
				-0.9659258723258972,
				0,
				0.2588193118572235
			],
			"scale":[
				3.5212769508361816,
				3.5212771892547607,
				3.5212769508361816
			],
			"translation":[
				1.1921968460083008,
				5.8606672286987305,
				1.2157737016677856
			]
		},
		{
			"mesh":5,
			"name":"Circle.002",
			"rotation":[
				0.18301285803318024,
				-0.6830126643180847,
				0.6830126643180847,
				0.18301285803318024
			],
			"scale":[
				3.5212769508361816,
				3.5212769508361816,
				3.5212771892547607
			],
			"translation":[
				1.4318875074386597,
				-1.1818866729736328,
				1.7403044700622559
			]
		},
		{
			"mesh":6,
			"name":"Circle.003",
			"rotation":[
				0.18301285803318024,
				-0.6830126643180847,
				0.6830126643180847,
				0.18301285803318024
			],
			"scale":[
				3.5212769508361816,
				3.5212769508361816,
				3.5212771892547607
			],
			"translation":[
				1.5444391965866089,
				-1.1818866729736328,
				1.825875163078308
			]
		},
		{
			"mesh":7,
			"name":"Plane.003",
			"rotation":[
				0,
				-0.9659258723258972,
				0,
				0.2588193118572235
			],
			"scale":[
				3.5212769508361816,
				3.5212771892547607,
				3.5212769508361816
			],
			"translation":[
				1.259152889251709,
				2.339390516281128,
				1.4411194324493408
			]
		},
		{
			"mesh":8,
			"name":"Plane.004",
			"rotation":[
				-0.6830126643180847,
				-0.6830126643180847,
				0.18301285803318024,
				0.18301288783550262
			],
			"scale":[
				3.5212771892547607,
				3.5212769508361816,
				3.5212769508361816
			],
			"translation":[
				1.259152889251709,
				2.339390516281128,
				1.3317452669143677
			]
		},
		{
			"mesh":9,
			"name":"Circle.004",
			"rotation":[
				0.18301285803318024,
				-0.6830126643180847,
				0.6830126643180847,
				0.18301285803318024
			],
			"scale":[
				3.5212769508361816,
				3.5212769508361816,
				3.5212771892547607
			],
			"translation":[
				1.5444391965866089,
				-1.1818866729736328,
				1.825875163078308
			]
		},
		{
			"mesh":10,
			"name":"Circle.005",
			"rotation":[
				0.18301285803318024,
				-0.6830126643180847,
				0.6830126643180847,
				0.18301285803318024
			],
			"scale":[
				3.5212769508361816,
				3.5212769508361816,
				3.5212771892547607
			],
			"translation":[
				1.5444391965866089,
				-1.1818866729736328,
				1.825875163078308
			]
		},
		{
			"mesh":11,
			"name":"Plane.005",
			"scale":[
				3.678053140640259,
				3.678053140640259,
				3.678053140640259
			],
			"translation":[
				0.7278316020965576,
				-1.2100224494934082,
				0.5883789658546448
			]
		},
		{
			"mesh":12,
			"name":"Circle.006",
			"rotation":[
				0.18301285803318024,
				-0.6830126643180847,
				0.6830126643180847,
				0.18301285803318024
			],
			"scale":[
				3.5212769508361816,
				3.5212769508361816,
				3.5212771892547607
			],
			"translation":[
				1.5444391965866089,
				-1.1818866729736328,
				1.825875163078308
			]
		},
		{
			"mesh":13,
			"name":"Circle.007",
			"rotation":[
				0.18301285803318024,
				-0.6830126643180847,
				0.6830126643180847,
				0.18301285803318024
			],
			"scale":[
				3.5212769508361816,
				3.5212769508361816,
				3.5212771892547607
			],
			"translation":[
				2.104548454284668,
				-1.1818866729736328,
				2.7960116863250732
			]
		}
	],
	"materials":[
		{
			"doubleSided":true,
			"name":"Material.002",
			"pbrMetallicRoughness":{
				"baseColorFactor":[
					0.2193279266357422,
					0.12480001896619797,
					0.800000011920929,
					1
				],
				"metallicFactor":0,
				"roughnessFactor":0.10000000149011612
			}
		},
		{
			"doubleSided":true,
			"name":"Material.003",
			"pbrMetallicRoughness":{
				"baseColorFactor":[
					0.800000011920929,
					0.800000011920929,
					0.800000011920929,
					1
				],
				"metallicFactor":0,
				"roughnessFactor":0.10000000149011612
			}
		},
		{
			"doubleSided":true,
			"name":"Material.005",
			"pbrMetallicRoughness":{
				"baseColorFactor":[
					0.800000011920929,
					0.16367994248867035,
					0.023999977856874466,
					1
				],
				"metallicFactor":0,
				"roughnessFactor":0.019999999552965164
			}
		},
		{
			"doubleSided":true,
			"extensions":{
				"KHR_materials_transmission":{
					"transmissionFactor":1
				},
				"KHR_materials_ior":{
					"ior":1.4500000476837158
				}
			},
			"name":"Material.001",
			"pbrMetallicRoughness":{
				"metallicFactor":0,
				"roughnessFactor":0.019999999552965164
			}
		},
		{
			"doubleSided":true,
			"name":"Material.006",
			"pbrMetallicRoughness":{
				"baseColorFactor":[
					0,
					0.41976290941238403,
					0.8003553152084351,
					1
				],
				"metallicFactor":0,
				"roughnessFactor":0.699999988079071
			}
		}
	],
	"meshes":[
		{
			"name":"Circle",
			"primitives":[
				{
					"attributes":{
						"POSITION":0,
						"NORMAL":1,
						"TEXCOORD_0":2
					},
					"indices":3,
					"material":0
				},
				{
					"attributes":{
						"POSITION":4,
						"NORMAL":5,
						"TEXCOORD_0":6
					},
					"indices":7,
					"material":1
				}
			]
		},
		{
			"name":"Plane.002",
			"primitives":[
				{
					"attributes":{
						"POSITION":8,
						"NORMAL":9,
						"TEXCOORD_0":10
					},
					"indices":11,
					"material":2
				}
			]
		},
		{
			"name":"Circle.002",
			"primitives":[
				{
					"attributes":{
						"POSITION":12,
						"NORMAL":13,
						"TEXCOORD_0":14
					},
					"indices":15,
					"material":2
				}
			]
		},
		{
			"name":"Plane.003",
			"primitives":[
				{
					"attributes":{
						"POSITION":16,
						"NORMAL":17,
						"TEXCOORD_0":18
					},
					"indices":19
				}
			]
		},
		{
			"name":"Plane.004",
			"primitives":[
				{
					"attributes":{
						"POSITION":20,
						"NORMAL":21,
						"TEXCOORD_0":22
					},
					"indices":23,
					"material":2
				}
			]
		},
		{
			"name":"Circle.003",
			"primitives":[
				{
					"attributes":{
						"POSITION":24,
						"NORMAL":25,
						"TEXCOORD_0":26
					},
					"indices":27,
					"material":0
				}
			]
		},
		{
			"name":"Circle.004",
			"primitives":[
				{
					"attributes":{
						"POSITION":28,
						"NORMAL":29,
						"TEXCOORD_0":30
					},
					"indices":31,
					"material":0
				}
			]
		},
		{
			"name":"Plane.005",
			"primitives":[
				{
					"attributes":{
						"POSITION":32,
						"NORMAL":33,
						"TEXCOORD_0":34
					},
					"indices":35,
					"material":2
				}
			]
		},
		{
			"name":"Plane.006",
			"primitives":[
				{
					"attributes":{
						"POSITION":36,
						"NORMAL":37,
						"TEXCOORD_0":38
					},
					"indices":39,
					"material":2
				}
			]
		},
		{
			"name":"Circle.001",
			"primitives":[
				{
					"attributes":{
						"POSITION":40,
						"NORMAL":41,
						"TEXCOORD_0":42
					},
					"indices":43,
					"material":1
				}
			]
		},
		{
			"name":"Circle.006",
			"primitives":[
				{
					"attributes":{
						"POSITION":44,
						"NORMAL":45,
						"TEXCOORD_0":46
					},
					"indices":47,
					"material":3
				}
			]
		},
		{
			"name":"Plane.007",
			"primitives":[
				{
					"attributes":{
						"POSITION":48,
						"NORMAL":49,
						"TEXCOORD_0":50
					},
					"indices":51,
					"material":4
				}
			]
		},
		{
			"name":"Circle.007",
			"primitives":[
				{
					"attributes":{
						"POSITION":52,
						"NORMAL":53,
						"TEXCOORD_0":54
					},
					"indices":7,
					"material":1
				}
			]
		},
		{
			"name":"Circle.009",
			"primitives":[
				{
					"attributes":{
						"POSITION":55,
						"NORMAL":56,
						"TEXCOORD_0":57
					},
					"indices":58,
					"material":0
				}
			]
		}
	],
	"accessors":[
		{
			"bufferView":0,
			"componentType":5126,
			"count":4369,
			"max":[
				0.9878658652305603,
				1.0131518840789795,
				-0.012134282849729061
			],
			"min":[
				-0.9878658652305603,
				0.001215037191286683,
				-1.987865924835205
			],
			"type":"VEC3"
		},
		{
			"bufferView":1,
			"componentType":5126,
			"count":4369,
			"type":"VEC3"
		},
		{
			"bufferView":2,
			"componentType":5126,
			"count":4369,
			"type":"VEC2"
		},
		{
			"bufferView":3,
			"componentType":5123,
			"count":25920,
			"type":"SCALAR"
		},
		{
			"bufferView":4,
			"componentType":5126,
			"count":145,
			"max":[
				0.6338754296302795,
				0.17347773909568787,
				-0.36612454056739807
			],
			"min":[
				-0.6338753700256348,
				0.1663825958967209,
				-1.6338752508163452
			],
			"type":"VEC3"
		},
		{
			"bufferView":5,
			"componentType":5126,
			"count":145,
			"type":"VEC3"
		},
		{
			"bufferView":6,
			"componentType":5126,
			"count":145,
			"type":"VEC2"
		},
		{
			"bufferView":7,
			"componentType":5123,
			"count":576,
			"type":"SCALAR"
		},
		{
			"bufferView":8,
			"componentType":5126,
			"count":1162,
			"max":[
				0.804906964302063,
				-0.7409117221832275,
				0.06406830996274948
			],
			"min":[
				-0.804906964302063,
				-1.0003715753555298,
				-0.06406813114881516
			],
			"type":"VEC3"
		},
		{
			"bufferView":9,
			"componentType":5126,
			"count":1162,
			"type":"VEC3"
		},
		{
			"bufferView":10,
			"componentType":5126,
			"count":1162,
			"type":"VEC2"
		},
		{
			"bufferView":11,
			"componentType":5123,
			"count":6528,
			"type":"SCALAR"
		},
		{
			"bufferView":12,
			"componentType":5126,
			"count":7108,
			"max":[
				1.6623233556747437,
				0.27105432748794556,
				0.5543015003204346
			],
			"min":[
				-0.5543015003204346,
				-1.4874587059020996,
				-0.5543017983436584
			],
			"type":"VEC3"
		},
		{
			"bufferView":13,
			"componentType":5126,
			"count":7108,
			"type":"VEC3"
		},
		{
			"bufferView":14,
			"componentType":5126,
			"count":7108,
			"type":"VEC2"
		},
		{
			"bufferView":15,
			"componentType":5123,
			"count":40320,
			"type":"SCALAR"
		},
		{
			"bufferView":16,
			"componentType":5126,
			"count":36,
			"max":[
				-0.5420725345611572,
				0.6132418513298035,
				0.0710001140832901
			],
			"min":[
				-1.3436243534088135,
				-1.1689873933792114,
				-0.07100027799606323
			],
			"type":"VEC3"
		},
		{
			"bufferView":17,
			"componentType":5126,
			"count":36,
			"type":"VEC3"
		},
		{
			"bufferView":18,
			"componentType":5126,
			"count":36,
			"type":"VEC2"
		},
		{
			"bufferView":19,
			"componentType":5123,
			"count":96,
			"type":"SCALAR"
		},
		{
			"bufferView":20,
			"componentType":5126,
			"count":1730,
			"max":[
				0.1514998823404312,
				0.39885884523391724,
				0.2784908413887024
			],
			"min":[
				-0.15149974822998047,
				0,
				0.07538861781358719
			],
			"type":"VEC3"
		},
		{
			"bufferView":21,
			"componentType":5126,
			"count":1730,
			"type":"VEC3"
		},
		{
			"bufferView":22,
			"componentType":5126,
			"count":1730,
			"type":"VEC2"
		},
		{
			"bufferView":23,
			"componentType":5123,
			"count":9792,
			"type":"SCALAR"
		},
		{
			"bufferView":24,
			"componentType":5126,
			"count":672,
			"max":[
				0.7212332487106323,
				0.10279221832752228,
				-0.2787667512893677
			],
			"min":[
				-0.7212332487106323,
				0.058672863990068436,
				-1.7212330102920532
			],
			"type":"VEC3"
		},
		{
			"bufferView":25,
			"componentType":5126,
			"count":672,
			"type":"VEC3"
		},
		{
			"bufferView":26,
			"componentType":5126,
			"count":672,
			"type":"VEC2"
		},
		{
			"bufferView":27,
			"componentType":5123,
			"count":3888,
			"type":"SCALAR"
		},
		{
			"bufferView":28,
			"componentType":5126,
			"count":2882,
			"max":[
				0.12863795459270477,
				0.17598865926265717,
				-0.8713620901107788
			],
			"min":[
				-0.12863799929618835,
				0.02186003513634205,
				-1.1286380290985107
			],
			"type":"VEC3"
		},
		{
			"bufferView":29,
			"componentType":5126,
			"count":2882,
			"type":"VEC3"
		},
		{
			"bufferView":30,
			"componentType":5126,
			"count":2882,
			"type":"VEC2"
		},
		{
			"bufferView":31,
			"componentType":5123,
			"count":17280,
			"type":"SCALAR"
		},
		{
			"bufferView":32,
			"componentType":5126,
			"count":66,
			"max":[
				0.03226267173886299,
				0.5511778593063354,
				6.423566389912594e-08
			],
			"min":[
				-0.032262664288282394,
				-0.08049929141998291,
				-0.031372811645269394
			],
			"type":"VEC3"
		},
		{
			"bufferView":33,
			"componentType":5126,
			"count":66,
			"type":"VEC3"
		},
		{
			"bufferView":34,
			"componentType":5126,
			"count":66,
			"type":"VEC2"
		},
		{
			"bufferView":35,
			"componentType":5123,
			"count":324,
			"type":"SCALAR"
		},
		{
			"bufferView":36,
			"componentType":5126,
			"count":68,
			"max":[
				0.03226267918944359,
				0.3878445625305176,
				6.41773851839389e-08
			],
			"min":[
				-0.032262664288282394,
				-0.08049929141998291,
				-0.031372811645269394
			],
			"type":"VEC3"
		},
		{
			"bufferView":37,
			"componentType":5126,
			"count":68,
			"type":"VEC3"
		},
		{
			"bufferView":38,
			"componentType":5126,
			"count":68,
			"type":"VEC2"
		},
		{
			"bufferView":39,
			"componentType":5123,
			"count":324,
			"type":"SCALAR"
		},
		{
			"bufferView":40,
			"componentType":5126,
			"count":18432,
			"max":[
				0.7907370328903198,
				0.02866022102534771,
				-0.20926298201084137
			],
			"min":[
				-0.7907370328903198,
				-0.028660306707024574,
				-1.7907371520996094
			],
			"type":"VEC3"
		},
		{
			"bufferView":41,
			"componentType":5126,
			"count":18432,
			"type":"VEC3"
		},
		{
			"bufferView":42,
			"componentType":5126,
			"count":18432,
			"type":"VEC2"
		},
		{
			"bufferView":43,
			"componentType":5123,
			"count":27648,
			"type":"SCALAR"
		},
		{
			"bufferView":44,
			"componentType":5126,
			"count":3554,
			"max":[
				0.7725107669830322,
				0.03152027353644371,
				-0.22748933732509613
			],
			"min":[
				-0.7725107669830322,
				-0.14879505336284637,
				-1.7725107669830322
			],
			"type":"VEC3"
		},
		{
			"bufferView":45,
			"componentType":5126,
			"count":3554,
			"type":"VEC3"
		},
		{
			"bufferView":46,
			"componentType":5126,
			"count":3554,
			"type":"VEC2"
		},
		{
			"bufferView":47,
			"componentType":5123,
			"count":20160,
			"type":"SCALAR"
		},
		{
			"bufferView":48,
			"componentType":5126,
			"count":86,
			"max":[
				1,
				0,
				1
			],
			"min":[
				-1,
				-0.17830048501491547,
				-1
			],
			"type":"VEC3"
		},
		{
			"bufferView":49,
			"componentType":5126,
			"count":86,
			"type":"VEC3"
		},
		{
			"bufferView":50,
			"componentType":5126,
			"count":86,
			"type":"VEC2"
		},
		{
			"bufferView":51,
			"componentType":5123,
			"count":324,
			"type":"SCALAR"
		},
		{
			"bufferView":52,
			"componentType":5126,
			"count":145,
			"max":[
				0.7821637988090515,
				0.14027225971221924,
				-0.2374608963727951
			],
			"min":[
				-0.7429147362709045,
				0.1402721107006073,
				-1.7625393867492676
			],
			"type":"VEC3"
		},
		{
			"bufferView":53,
			"componentType":5126,
			"count":145,
			"type":"VEC3"
		},
		{
			"bufferView":54,
			"componentType":5126,
			"count":145,
			"type":"VEC2"
		},
		{
			"bufferView":55,
			"componentType":5126,
			"count":141,
			"max":[
				0.24671399593353271,
				0.6646203994750977,
				-1.9195834398269653
			],
			"min":[
				-0.24671398103237152,
				0.42144811153411865,
				-2.0686564445495605
			],
			"type":"VEC3"
		},
		{
			"bufferView":56,
			"componentType":5126,
			"count":141,
			"type":"VEC3"
		},
		{
			"bufferView":57,
			"componentType":5126,
			"count":141,
			"type":"VEC2"
		},
		{
			"bufferView":58,
			"componentType":5123,
			"count":768,
			"type":"SCALAR"
		}
	],
	"bufferViews":[
		{
			"buffer":0,
			"byteLength":52428,
			"byteOffset":0,
			"target":34962
		},
		{
			"buffer":0,
			"byteLength":52428,
			"byteOffset":52428,
			"target":34962
		},
		{
			"buffer":0,
			"byteLength":34952,
			"byteOffset":104856,
			"target":34962
		},
		{
			"buffer":0,
			"byteLength":51840,
			"byteOffset":139808,
			"target":34963
		},
		{
			"buffer":0,
			"byteLength":1740,
			"byteOffset":191648,
			"target":34962
		},
		{
			"buffer":0,
			"byteLength":1740,
			"byteOffset":193388,
			"target":34962
		},
		{
			"buffer":0,
			"byteLength":1160,
			"byteOffset":195128,
			"target":34962
		},
		{
			"buffer":0,
			"byteLength":1152,
			"byteOffset":196288,
			"target":34963
		},
		{
			"buffer":0,
			"byteLength":13944,
			"byteOffset":197440,
			"target":34962
		},
		{
			"buffer":0,
			"byteLength":13944,
			"byteOffset":211384,
			"target":34962
		},
		{
			"buffer":0,
			"byteLength":9296,
			"byteOffset":225328,
			"target":34962
		},
		{
			"buffer":0,
			"byteLength":13056,
			"byteOffset":234624,
			"target":34963
		},
		{
			"buffer":0,
			"byteLength":85296,
			"byteOffset":247680,
			"target":34962
		},
		{
			"buffer":0,
			"byteLength":85296,
			"byteOffset":332976,
			"target":34962
		},
		{
			"buffer":0,
			"byteLength":56864,
			"byteOffset":418272,
			"target":34962
		},
		{
			"buffer":0,
			"byteLength":80640,
			"byteOffset":475136,
			"target":34963
		},
		{
			"buffer":0,
			"byteLength":432,
			"byteOffset":555776,
			"target":34962
		},
		{
			"buffer":0,
			"byteLength":432,
			"byteOffset":556208,
			"target":34962
		},
		{
			"buffer":0,
			"byteLength":288,
			"byteOffset":556640,
			"target":34962
		},
		{
			"buffer":0,
			"byteLength":192,
			"byteOffset":556928,
			"target":34963
		},
		{
			"buffer":0,
			"byteLength":20760,
			"byteOffset":557120,
			"target":34962
		},
		{
			"buffer":0,
			"byteLength":20760,
			"byteOffset":577880,
			"target":34962
		},
		{
			"buffer":0,
			"byteLength":13840,
			"byteOffset":598640,
			"target":34962
		},
		{
			"buffer":0,
			"byteLength":19584,
			"byteOffset":612480,
			"target":34963
		},
		{
			"buffer":0,
			"byteLength":8064,
			"byteOffset":632064,
			"target":34962
		},
		{
			"buffer":0,
			"byteLength":8064,
			"byteOffset":640128,
			"target":34962
		},
		{
			"buffer":0,
			"byteLength":5376,
			"byteOffset":648192,
			"target":34962
		},
		{
			"buffer":0,
			"byteLength":7776,
			"byteOffset":653568,
			"target":34963
		},
		{
			"buffer":0,
			"byteLength":34584,
			"byteOffset":661344,
			"target":34962
		},
		{
			"buffer":0,
			"byteLength":34584,
			"byteOffset":695928,
			"target":34962
		},
		{
			"buffer":0,
			"byteLength":23056,
			"byteOffset":730512,
			"target":34962
		},
		{
			"buffer":0,
			"byteLength":34560,
			"byteOffset":753568,
			"target":34963
		},
		{
			"buffer":0,
			"byteLength":792,
			"byteOffset":788128,
			"target":34962
		},
		{
			"buffer":0,
			"byteLength":792,
			"byteOffset":788920,
			"target":34962
		},
		{
			"buffer":0,
			"byteLength":528,
			"byteOffset":789712,
			"target":34962
		},
		{
			"buffer":0,
			"byteLength":648,
			"byteOffset":790240,
			"target":34963
		},
		{
			"buffer":0,
			"byteLength":816,
			"byteOffset":790888,
			"target":34962
		},
		{
			"buffer":0,
			"byteLength":816,
			"byteOffset":791704,
			"target":34962
		},
		{
			"buffer":0,
			"byteLength":544,
			"byteOffset":792520,
			"target":34962
		},
		{
			"buffer":0,
			"byteLength":648,
			"byteOffset":793064,
			"target":34963
		},
		{
			"buffer":0,
			"byteLength":221184,
			"byteOffset":793712,
			"target":34962
		},
		{
			"buffer":0,
			"byteLength":221184,
			"byteOffset":1014896,
			"target":34962
		},
		{
			"buffer":0,
			"byteLength":147456,
			"byteOffset":1236080,
			"target":34962
		},
		{
			"buffer":0,
			"byteLength":55296,
			"byteOffset":1383536,
			"target":34963
		},
		{
			"buffer":0,
			"byteLength":42648,
			"byteOffset":1438832,
			"target":34962
		},
		{
			"buffer":0,
			"byteLength":42648,
			"byteOffset":1481480,
			"target":34962
		},
		{
			"buffer":0,
			"byteLength":28432,
			"byteOffset":1524128,
			"target":34962
		},
		{
			"buffer":0,
			"byteLength":40320,
			"byteOffset":1552560,
			"target":34963
		},
		{
			"buffer":0,
			"byteLength":1032,
			"byteOffset":1592880,
			"target":34962
		},
		{
			"buffer":0,
			"byteLength":1032,
			"byteOffset":1593912,
			"target":34962
		},
		{
			"buffer":0,
			"byteLength":688,
			"byteOffset":1594944,
			"target":34962
		},
		{
			"buffer":0,
			"byteLength":648,
			"byteOffset":1595632,
			"target":34963
		},
		{
			"buffer":0,
			"byteLength":1740,
			"byteOffset":1596280,
			"target":34962
		},
		{
			"buffer":0,
			"byteLength":1740,
			"byteOffset":1598020,
			"target":34962
		},
		{
			"buffer":0,
			"byteLength":1160,
			"byteOffset":1599760,
			"target":34962
		},
		{
			"buffer":0,
			"byteLength":1692,
			"byteOffset":1600920,
			"target":34962
		},
		{
			"buffer":0,
			"byteLength":1692,
			"byteOffset":1602612,
			"target":34962
		},
		{
			"buffer":0,
			"byteLength":1128,
			"byteOffset":1604304,
			"target":34962
		},
		{
			"buffer":0,
			"byteLength":1536,
			"byteOffset":1605432,
			"target":34963
		}
	],
	"buffers":[
		{
			"byteLength":1606968,
			"uri":"scene.bin"
		}
	]
}
