{
	"asset":{
		"generator":"Khronos glTF Blender I/O v4.0.43",
		"version":"2.0"
	},
	"extensionsUsed":[
		"KHR_materials_specular",
		"KHR_materials_ior"
	],
	"scene":0,
	"scenes":[
		{
			"name":"Scene",
			"nodes":[
				0,
				1,
				2,
				3,
				4,
				5,
				6,
				7,
				8,
				9,
				10
			]
		}
	],
	"nodes":[
		{
			"mesh":0,
			"name":"Cube.001",
			"rotation":[
				0,
				0.03968173265457153,
				0,
				0.999212384223938
			],
			"scale":[
				2.264117479324341,
				2.068422794342041,
				2.1400723457336426
			],
			"translation":[
				0,
				-1.9775382280349731,
				0
			]
		},
		{
			"mesh":1,
			"name":"Cube.004",
			"rotation":[
				0,
				0.03968173637986183,
				0,
				0.999212384223938
			],
			"scale":[
				2.127225160598755,
				1.9433625936508179,
				2.0106799602508545
			],
			"translation":[
				0,
				-1.9775382280349731,
				0
			]
		},
		{
			"mesh":2,
			"name":"Cube.008",
			"rotation":[
				0,
				0.03968173265457153,
				0,
				0.999212384223938
			],
			"scale":[
				1.058800458908081,
				1.127076506614685,
				2.430921792984009
			],
			"translation":[
				0.051329001784324646,
				-2.345485210418701,
				-3.8928186893463135
			]
		},
		{
			"mesh":3,
			"name":"Cube.009",
			"scale":[
				2.5385875701904297,
				0.36158475279808044,
				2.5385875701904297
			],
			"translation":[
				-9.868137567536905e-05,
				-5.223391056060791,
				-0.05501401051878929
			]
		},
		{
			"mesh":4,
			"name":"Cube",
			"rotation":[
				0,
				0.03968173265457153,
				0,
				0.999212384223938
			],
			"scale":[
				3.226024627685547,
				2.5385875701904297,
				2.538588047027588
			],
			"translation":[
				0,
				2.538587808609009,
				0
			]
		},
		{
			"mesh":5,
			"name":"Cube.002",
			"rotation":[
				0,
				0.03968173265457153,
				0,
				0.999212384223938
			],
			"scale":[
				3.226024627685547,
				2.5385875701904297,
				2.538588047027588
			],
			"translation":[
				0,
				2.538587808609009,
				0
			]
		},
		{
			"mesh":6,
			"name":"Cube.003",
			"rotation":[
				0,
				0.03968173265457153,
				0,
				0.999212384223938
			],
			"scale":[
				3.226024627685547,
				2.5385875701904297,
				2.538588047027588
			],
			"translation":[
				0,
				2.538587808609009,
				0
			]
		},
		{
			"mesh":7,
			"name":"Cube.005",
			"rotation":[
				0,
				0.03968173265457153,
				0,
				0.999212384223938
			],
			"scale":[
				2.538588047027588,
				2.5385875701904297,
				2.538588047027588
			],
			"translation":[
				0,
				2.538587808609009,
				0
			]
		},
		{
			"mesh":8,
			"name":"Cube.006",
			"rotation":[
				0,
				0.03968173265457153,
				0,
				0.999212384223938
			],
			"scale":[
				2.538588047027588,
				2.5385875701904297,
				2.538588047027588
			],
			"translation":[
				0,
				3.429926872253418,
				0
			]
		},
		{
			"mesh":9,
			"name":"Cube.007",
			"rotation":[
				-0.028059225529432297,
				0.028059223666787148,
				-0.7065498232841492,
				0.706549882888794
			],
			"scale":[
				0.16633832454681396,
				0.22732968628406525,
				0.13764688372612
			],
			"translation":[
				0.17865820229053497,
				1.9959627389907837,
				2.2458183765411377
			]
		},
		{
			"mesh":10,
			"name":"NurbsPath",
			"rotation":[
				0.21489620208740234,
				0.038753166794776917,
				-0.008534176275134087,
				0.9758304357528687
			],
			"scale":[
				0.24604684114456177,
				0.24604681134223938,
				0.24604682624340057
			],
			"translation":[
				0.17934635281562805,
				1.4865535497665405,
				2.2544686794281006
			]
		}
	],
	"materials":[
		{
			"doubleSided":true,
			"extensions":{
				"KHR_materials_specular":{
					"specularFactor":0.4000000059604645
				},
				"KHR_materials_ior":{
					"ior":1.4500000476837158
				}
			},
			"name":"Material",
			"pbrMetallicRoughness":{
				"baseColorFactor":[
					0.800000011920929,
					0.1104000136256218,
					0,
					1
				],
				"metallicFactor":0,
				"roughnessFactor":0.699999988079071
			}
		},
		{
			"doubleSided":true,
			"extensions":{
				"KHR_materials_specular":{
					"specularFactor":0.4000000059604645
				},
				"KHR_materials_ior":{
					"ior":1.4500000476837158
				}
			},
			"name":"Material.001",
			"pbrMetallicRoughness":{
				"metallicFactor":0,
				"roughnessFactor":0.699999988079071
			}
		},
		{
			"doubleSided":true,
			"name":"Material.004",
			"pbrMetallicRoughness":{
				"baseColorFactor":[
					0,
					0.1039419025182724,
					0.8004740476608276,
					1
				],
				"metallicFactor":0,
				"roughnessFactor":0.15000000596046448
			}
		},
		{
			"doubleSided":true,
			"name":"Material.002",
			"pbrMetallicRoughness":{
				"baseColorFactor":[
					0.023000000044703484,
					0.023000000044703484,
					0.023000000044703484,
					1
				],
				"metallicFactor":0,
				"roughnessFactor":0.5
			}
		},
		{
			"doubleSided":true,
			"extensions":{
				"KHR_materials_specular":{
					"specularFactor":0.4000000059604645
				},
				"KHR_materials_ior":{
					"ior":1.4500000476837158
				}
			},
			"name":"Material.003",
			"pbrMetallicRoughness":{
				"baseColorFactor":[
					0.48899999260902405,
					0.01613699644804001,
					0.01613699644804001,
					1
				],
				"metallicFactor":0,
				"roughnessFactor":0.699999988079071
			}
		},
		{
			"doubleSided":true,
			"name":"Material.002",
			"pbrMetallicRoughness":{
				"baseColorFactor":[
					0.023000000044703484,
					0.023000000044703484,
					0.023000000044703484,
					1
				],
				"metallicFactor":0,
				"roughnessFactor":0.5
			}
		}
	],
	"meshes":[
		{
			"name":"Cube.001",
			"primitives":[
				{
					"attributes":{
						"POSITION":0,
						"NORMAL":1,
						"TEXCOORD_0":2
					},
					"indices":3,
					"material":0
				}
			]
		},
		{
			"name":"Cube.004",
			"primitives":[
				{
					"attributes":{
						"POSITION":4,
						"NORMAL":5,
						"TEXCOORD_0":6
					},
					"indices":7,
					"material":1
				}
			]
		},
		{
			"name":"Cube.008",
			"primitives":[
				{
					"attributes":{
						"POSITION":8,
						"NORMAL":9,
						"TEXCOORD_0":10
					},
					"indices":11,
					"material":0
				},
				{
					"attributes":{
						"POSITION":12,
						"NORMAL":13,
						"TEXCOORD_0":14
					},
					"indices":15,
					"material":1
				}
			]
		},
		{
			"name":"Cube.009",
			"primitives":[
				{
					"attributes":{
						"POSITION":16,
						"NORMAL":17,
						"TEXCOORD_0":18
					},
					"indices":19,
					"material":2
				}
			]
		},
		{
			"name":"Cube",
			"primitives":[
				{
					"attributes":{
						"POSITION":20,
						"NORMAL":21,
						"TEXCOORD_0":22
					},
					"indices":23,
					"material":0
				}
			]
		},
		{
			"name":"Cube.002",
			"primitives":[
				{
					"attributes":{
						"POSITION":24,
						"NORMAL":25,
						"TEXCOORD_0":26
					},
					"indices":27,
					"material":1
				}
			]
		},
		{
			"name":"Cube.003",
			"primitives":[
				{
					"attributes":{
						"POSITION":28,
						"NORMAL":29,
						"TEXCOORD_0":30
					},
					"indices":31,
					"material":1
				}
			]
		},
		{
			"name":"Cube.005",
			"primitives":[
				{
					"attributes":{
						"POSITION":32,
						"NORMAL":33,
						"TEXCOORD_0":34
					},
					"indices":35,
					"material":3
				}
			]
		},
		{
			"name":"Cube.006",
			"primitives":[
				{
					"attributes":{
						"POSITION":36,
						"NORMAL":37,
						"TEXCOORD_0":38
					},
					"indices":39,
					"material":4
				}
			]
		},
		{
			"name":"Cube.007",
			"primitives":[
				{
					"attributes":{
						"POSITION":40,
						"NORMAL":41,
						"TEXCOORD_0":42
					},
					"indices":43,
					"material":3
				}
			]
		},
		{
			"name":"NurbsPath",
			"primitives":[
				{
					"attributes":{
						"POSITION":44,
						"NORMAL":45,
						"TEXCOORD_0":46
					},
					"indices":47,
					"material":5
				}
			]
		}
	],
	"accessors":[
		{
			"bufferView":0,
			"componentType":5126,
			"count":4547,
			"max":[
				1.096656322479248,
				1.2494105100631714,
				0.7723630666732788
			],
			"min":[
				-1.0966562032699585,
				-1.4250832796096802,
				-0.772363007068634
			],
			"type":"VEC3"
		},
		{
			"bufferView":1,
			"componentType":5126,
			"count":4547,
			"type":"VEC3"
		},
		{
			"bufferView":2,
			"componentType":5126,
			"count":4547,
			"type":"VEC2"
		},
		{
			"bufferView":3,
			"componentType":5123,
			"count":23808,
			"type":"SCALAR"
		},
		{
			"bufferView":4,
			"componentType":5126,
			"count":1043,
			"max":[
				0.6557601094245911,
				1.2945092916488647,
				0.9130380153656006
			],
			"min":[
				-0.6557599902153015,
				-0.42737042903900146,
				0.2308017611503601
			],
			"type":"VEC3"
		},
		{
			"bufferView":5,
			"componentType":5126,
			"count":1043,
			"type":"VEC3"
		},
		{
			"bufferView":6,
			"componentType":5126,
			"count":1043,
			"type":"VEC2"
		},
		{
			"bufferView":7,
			"componentType":5123,
			"count":5280,
			"type":"SCALAR"
		},
		{
			"bufferView":8,
			"componentType":5126,
			"count":274,
			"max":[
				0.8711801767349243,
				1.1340636014938354,
				1.2328317165374756
			],
			"min":[
				-0.87117999792099,
				-0.8901083469390869,
				-0.03617466986179352
			],
			"type":"VEC3"
		},
		{
			"bufferView":9,
			"componentType":5126,
			"count":274,
			"type":"VEC3"
		},
		{
			"bufferView":10,
			"componentType":5126,
			"count":274,
			"type":"VEC2"
		},
		{
			"bufferView":11,
			"componentType":5123,
			"count":1248,
			"type":"SCALAR"
		},
		{
			"bufferView":12,
			"componentType":5126,
			"count":105,
			"max":[
				0.4485408663749695,
				1.442944884300232,
				0.22909827530384064
			],
			"min":[
				-0.44854071736335754,
				0.5057818293571472,
				-0.07302477955818176
			],
			"type":"VEC3"
		},
		{
			"bufferView":13,
			"componentType":5126,
			"count":105,
			"type":"VEC3"
		},
		{
			"bufferView":14,
			"componentType":5126,
			"count":105,
			"type":"VEC2"
		},
		{
			"bufferView":15,
			"componentType":5123,
			"count":480,
			"type":"SCALAR"
		},
		{
			"bufferView":16,
			"componentType":5126,
			"count":1188,
			"max":[
				0.9961401224136353,
				0.9961401224136353,
				0.9961401224136353
			],
			"min":[
				-0.9961401224136353,
				-0.9961401224136353,
				-0.9961401224136353
			],
			"type":"VEC3"
		},
		{
			"bufferView":17,
			"componentType":5126,
			"count":1188,
			"type":"VEC3"
		},
		{
			"bufferView":18,
			"componentType":5126,
			"count":1188,
			"type":"VEC2"
		},
		{
			"bufferView":19,
			"componentType":5123,
			"count":5184,
			"type":"SCALAR"
		},
		{
			"bufferView":20,
			"componentType":5126,
			"count":3326,
			"max":[
				1.051620602607727,
				1.6930463314056396,
				0.8015923500061035
			],
			"min":[
				-1.051620602607727,
				-0.8015923500061035,
				-0.8015923500061035
			],
			"type":"VEC3"
		},
		{
			"bufferView":21,
			"componentType":5126,
			"count":3326,
			"type":"VEC3"
		},
		{
			"bufferView":22,
			"componentType":5126,
			"count":3326,
			"type":"VEC2"
		},
		{
			"bufferView":23,
			"componentType":5123,
			"count":17280,
			"type":"SCALAR"
		},
		{
			"bufferView":24,
			"componentType":5126,
			"count":3546,
			"max":[
				0.7512179613113403,
				-0.05800879746675491,
				0.9018368721008301
			],
			"min":[
				-0.7512180209159851,
				-0.8660352230072021,
				0.06481152772903442
			],
			"type":"VEC3"
		},
		{
			"bufferView":25,
			"componentType":5126,
			"count":3546,
			"type":"VEC3"
		},
		{
			"bufferView":26,
			"componentType":5126,
			"count":3546,
			"type":"VEC2"
		},
		{
			"bufferView":27,
			"componentType":5123,
			"count":19968,
			"type":"SCALAR"
		},
		{
			"bufferView":28,
			"componentType":5126,
			"count":724,
			"max":[
				0.7901315093040466,
				1.4835810661315918,
				0.2719569802284241
			],
			"min":[
				-0.7901315689086914,
				0.6880629062652588,
				0.06241695582866669
			],
			"type":"VEC3"
		},
		{
			"bufferView":29,
			"componentType":5126,
			"count":724,
			"type":"VEC3"
		},
		{
			"bufferView":30,
			"componentType":5126,
			"count":724,
			"type":"VEC2"
		},
		{
			"bufferView":31,
			"componentType":5123,
			"count":3648,
			"type":"SCALAR"
		},
		{
			"bufferView":32,
			"componentType":5126,
			"count":1988,
			"max":[
				0.4688897132873535,
				0.10258739441633224,
				0.7851487994194031
			],
			"min":[
				-0.4688897132873535,
				-0.10258738696575165,
				0.7126854062080383
			],
			"type":"VEC3"
		},
		{
			"bufferView":33,
			"componentType":5126,
			"count":1988,
			"type":"VEC3"
		},
		{
			"bufferView":34,
			"componentType":5126,
			"count":1988,
			"type":"VEC2"
		},
		{
			"bufferView":35,
			"componentType":5123,
			"count":10752,
			"type":"SCALAR"
		},
		{
			"bufferView":36,
			"componentType":5126,
			"count":882,
			"max":[
				0.6011974215507507,
				0.1349465399980545,
				0.741435706615448
			],
			"min":[
				-0.6011974215507507,
				-0.13494643568992615,
				0.6344472169876099
			],
			"type":"VEC3"
		},
		{
			"bufferView":37,
			"componentType":5126,
			"count":882,
			"type":"VEC3"
		},
		{
			"bufferView":38,
			"componentType":5126,
			"count":882,
			"type":"VEC2"
		},
		{
			"bufferView":39,
			"componentType":5123,
			"count":4608,
			"type":"SCALAR"
		},
		{
			"bufferView":40,
			"componentType":5126,
			"count":994,
			"max":[
				0.9166668057441711,
				0.9296033978462219,
				0.9166667461395264
			],
			"min":[
				-0.9166668057441711,
				-0.9296033978462219,
				-0.9166668057441711
			],
			"type":"VEC3"
		},
		{
			"bufferView":41,
			"componentType":5126,
			"count":994,
			"type":"VEC3"
		},
		{
			"bufferView":42,
			"componentType":5126,
			"count":994,
			"type":"VEC2"
		},
		{
			"bufferView":43,
			"componentType":5123,
			"count":5376,
			"type":"SCALAR"
		},
		{
			"bufferView":44,
			"componentType":5126,
			"count":1272,
			"max":[
				1.8638222217559814,
				0.8727215528488159,
				0.05896252021193504
			],
			"min":[
				-1.8638246059417725,
				-0.23271110653877258,
				-0.6286945939064026
			],
			"type":"VEC3"
		},
		{
			"bufferView":45,
			"componentType":5126,
			"count":1272,
			"type":"VEC3"
		},
		{
			"bufferView":46,
			"componentType":5126,
			"count":1272,
			"type":"VEC2"
		},
		{
			"bufferView":47,
			"componentType":5123,
			"count":6900,
			"type":"SCALAR"
		}
	],
	"bufferViews":[
		{
			"buffer":0,
			"byteLength":54564,
			"byteOffset":0,
			"target":34962
		},
		{
			"buffer":0,
			"byteLength":54564,
			"byteOffset":54564,
			"target":34962
		},
		{
			"buffer":0,
			"byteLength":36376,
			"byteOffset":109128,
			"target":34962
		},
		{
			"buffer":0,
			"byteLength":47616,
			"byteOffset":145504,
			"target":34963
		},
		{
			"buffer":0,
			"byteLength":12516,
			"byteOffset":193120,
			"target":34962
		},
		{
			"buffer":0,
			"byteLength":12516,
			"byteOffset":205636,
			"target":34962
		},
		{
			"buffer":0,
			"byteLength":8344,
			"byteOffset":218152,
			"target":34962
		},
		{
			"buffer":0,
			"byteLength":10560,
			"byteOffset":226496,
			"target":34963
		},
		{
			"buffer":0,
			"byteLength":3288,
			"byteOffset":237056,
			"target":34962
		},
		{
			"buffer":0,
			"byteLength":3288,
			"byteOffset":240344,
			"target":34962
		},
		{
			"buffer":0,
			"byteLength":2192,
			"byteOffset":243632,
			"target":34962
		},
		{
			"buffer":0,
			"byteLength":2496,
			"byteOffset":245824,
			"target":34963
		},
		{
			"buffer":0,
			"byteLength":1260,
			"byteOffset":248320,
			"target":34962
		},
		{
			"buffer":0,
			"byteLength":1260,
			"byteOffset":249580,
			"target":34962
		},
		{
			"buffer":0,
			"byteLength":840,
			"byteOffset":250840,
			"target":34962
		},
		{
			"buffer":0,
			"byteLength":960,
			"byteOffset":251680,
			"target":34963
		},
		{
			"buffer":0,
			"byteLength":14256,
			"byteOffset":252640,
			"target":34962
		},
		{
			"buffer":0,
			"byteLength":14256,
			"byteOffset":266896,
			"target":34962
		},
		{
			"buffer":0,
			"byteLength":9504,
			"byteOffset":281152,
			"target":34962
		},
		{
			"buffer":0,
			"byteLength":10368,
			"byteOffset":290656,
			"target":34963
		},
		{
			"buffer":0,
			"byteLength":39912,
			"byteOffset":301024,
			"target":34962
		},
		{
			"buffer":0,
			"byteLength":39912,
			"byteOffset":340936,
			"target":34962
		},
		{
			"buffer":0,
			"byteLength":26608,
			"byteOffset":380848,
			"target":34962
		},
		{
			"buffer":0,
			"byteLength":34560,
			"byteOffset":407456,
			"target":34963
		},
		{
			"buffer":0,
			"byteLength":42552,
			"byteOffset":442016,
			"target":34962
		},
		{
			"buffer":0,
			"byteLength":42552,
			"byteOffset":484568,
			"target":34962
		},
		{
			"buffer":0,
			"byteLength":28368,
			"byteOffset":527120,
			"target":34962
		},
		{
			"buffer":0,
			"byteLength":39936,
			"byteOffset":555488,
			"target":34963
		},
		{
			"buffer":0,
			"byteLength":8688,
			"byteOffset":595424,
			"target":34962
		},
		{
			"buffer":0,
			"byteLength":8688,
			"byteOffset":604112,
			"target":34962
		},
		{
			"buffer":0,
			"byteLength":5792,
			"byteOffset":612800,
			"target":34962
		},
		{
			"buffer":0,
			"byteLength":7296,
			"byteOffset":618592,
			"target":34963
		},
		{
			"buffer":0,
			"byteLength":23856,
			"byteOffset":625888,
			"target":34962
		},
		{
			"buffer":0,
			"byteLength":23856,
			"byteOffset":649744,
			"target":34962
		},
		{
			"buffer":0,
			"byteLength":15904,
			"byteOffset":673600,
			"target":34962
		},
		{
			"buffer":0,
			"byteLength":21504,
			"byteOffset":689504,
			"target":34963
		},
		{
			"buffer":0,
			"byteLength":10584,
			"byteOffset":711008,
			"target":34962
		},
		{
			"buffer":0,
			"byteLength":10584,
			"byteOffset":721592,
			"target":34962
		},
		{
			"buffer":0,
			"byteLength":7056,
			"byteOffset":732176,
			"target":34962
		},
		{
			"buffer":0,
			"byteLength":9216,
			"byteOffset":739232,
			"target":34963
		},
		{
			"buffer":0,
			"byteLength":11928,
			"byteOffset":748448,
			"target":34962
		},
		{
			"buffer":0,
			"byteLength":11928,
			"byteOffset":760376,
			"target":34962
		},
		{
			"buffer":0,
			"byteLength":7952,
			"byteOffset":772304,
			"target":34962
		},
		{
			"buffer":0,
			"byteLength":10752,
			"byteOffset":780256,
			"target":34963
		},
		{
			"buffer":0,
			"byteLength":15264,
			"byteOffset":791008,
			"target":34962
		},
		{
			"buffer":0,
			"byteLength":15264,
			"byteOffset":806272,
			"target":34962
		},
		{
			"buffer":0,
			"byteLength":10176,
			"byteOffset":821536,
			"target":34962
		},
		{
			"buffer":0,
			"byteLength":13800,
			"byteOffset":831712,
			"target":34963
		}
	],
	"buffers":[
		{
			"byteLength":845512,
			"uri":"scene.bin"
		}
	]
}
