{
	"asset":{
		"generator":"Khronos glTF Blender I/O v4.0.43",
		"version":"2.0"
	},
	"scene":0,
	"scenes":[
		{
			"name":"Scene",
			"nodes":[
				0,
				1,
				2,
				3,
				4,
				5,
				6,
				7,
				8,
				9,
				10,
				11
			]
		}
	],
	"nodes":[
		{
			"mesh":0,
			"name":"Plane",
			"scale":[
				1.8340235948562622,
				1.8340235948562622,
				1.8340235948562622
			],
			"translation":[
				0,
				0.6020318269729614,
				0
			]
		},
		{
			"mesh":1,
			"name":"Plane.001",
			"scale":[
				1.8340235948562622,
				1.8340235948562622,
				1.8340235948562622
			],
			"translation":[
				0,
				0.6020318269729614,
				0
			]
		},
		{
			"mesh":2,
			"name":"Plane.002",
			"scale":[
				1.8340235948562622,
				1.8340235948562622,
				1.8340235948562622
			],
			"translation":[
				0,
				0.6020318269729614,
				0
			]
		},
		{
			"mesh":3,
			"name":"Vert.003",
			"scale":[
				1.8340235948562622,
				1.8340235948562622,
				1.8340235948562622
			],
			"translation":[
				2.276350498199463,
				1.6159242391586304,
				1.0465067625045776
			]
		},
		{
			"mesh":4,
			"name":"Plane.003",
			"scale":[
				1.8340235948562622,
				1.8340235948562622,
				1.8340235948562622
			],
			"translation":[
				0,
				0.6020318269729614,
				0
			]
		},
		{
			"mesh":5,
			"name":"Plane.004",
			"scale":[
				1.8340235948562622,
				1.8340235948562622,
				1.8340235948562622
			],
			"translation":[
				0,
				0.6020318269729614,
				0
			]
		},
		{
			"mesh":6,
			"name":"Plane.005",
			"scale":[
				1.8340235948562622,
				1.8340235948562622,
				1.8340235948562622
			],
			"translation":[
				2.5406906604766846,
				0.7064269185066223,
				1.7913012504577637
			]
		},
		{
			"mesh":7,
			"name":"Plane.006",
			"rotation":[
				0.1806032657623291,
				-0.3373856544494629,
				-0.4360148012638092,
				0.8145211338996887
			],
			"scale":[
				1.9968808889389038,
				1.9968801736831665,
				1.4719717502593994
			],
			"translation":[
				2.0684616565704346,
				2.9312644004821777,
				1.3190717697143555
			]
		},
		{
			"mesh":8,
			"name":"Plane.007",
			"rotation":[
				0.7071068286895752,
				0,
				0,
				0.7071067690849304
			],
			"scale":[
				1.6250760555267334,
				1.8212660551071167,
				0.9986509084701538
			],
			"translation":[
				-0.003194141434505582,
				2.0203938484191895,
				-2.7872560024261475
			]
		},
		{
			"mesh":9,
			"name":"Text",
			"rotation":[
				0.7071068286895752,
				0,
				0,
				0.7071068286895752
			],
			"scale":[
				2.2891318798065186,
				2.2891318798065186,
				2.2891318798065186
			],
			"translation":[
				-1.18468177318573,
				1.4551467895507812,
				-2.7872560024261475
			]
		},
		{
			"mesh":10,
			"name":"Plane.009",
			"scale":[
				1.8340235948562622,
				1.8340235948562622,
				1.8340235948562622
			],
			"translation":[
				0,
				0.6020318269729614,
				0
			]
		},
		{
			"mesh":11,
			"name":"Plane.010",
			"scale":[
				3.4497570991516113,
				3.203533172607422,
				3.203533172607422
			],
			"translation":[
				0,
				-0.007740966975688934,
				-0.30118119716644287
			]
		}
	],
	"materials":[
		{
			"doubleSided":true,
			"name":"Material.002",
			"pbrMetallicRoughness":{
				"baseColorFactor":[
					0.33431336283683777,
					0.5609999895095825,
					0.052733954042196274,
					1
				],
				"metallicFactor":0,
				"roughnessFactor":0.5
			}
		},
		{
			"doubleSided":true,
			"name":"Material.003",
			"pbrMetallicRoughness":{
				"metallicFactor":0,
				"roughnessFactor":0.5
			}
		},
		{
			"doubleSided":true,
			"name":"Material.009",
			"pbrMetallicRoughness":{
				"baseColorFactor":[
					0.1935988813638687,
					0.1935988813638687,
					0.1935988813638687,
					1
				],
				"metallicFactor":0,
				"roughnessFactor":0.5
			}
		},
		{
			"doubleSided":true,
			"name":"Material.004",
			"pbrMetallicRoughness":{
				"baseColorFactor":[
					0.800000011920929,
					0.21945920586585999,
					0.017600012943148613,
					1
				],
				"metallicFactor":0,
				"roughnessFactor":0.1550000011920929
			}
		},
		{
			"doubleSided":true,
			"name":"Material.008",
			"pbrMetallicRoughness":{
				"baseColorFactor":[
					0.2280488908290863,
					0.41406184434890747,
					0.8001194596290588,
					1
				],
				"metallicFactor":0,
				"roughnessFactor":0.5
			}
		},
		{
			"doubleSided":true,
			"name":"Material.005",
			"pbrMetallicRoughness":{
				"baseColorFactor":[
					0.009221273474395275,
					0.0077643985860049725,
					0.023600000888109207,
					1
				],
				"metallicFactor":0,
				"roughnessFactor":0.15000000596046448
			}
		},
		{
			"doubleSided":true,
			"name":"Material",
			"pbrMetallicRoughness":{
				"baseColorFactor":[
					0.800000011920929,
					0.800000011920929,
					0.800000011920929,
					1
				],
				"metallicFactor":0,
				"roughnessFactor":0.5
			}
		},
		{
			"doubleSided":true,
			"name":"Material.007",
			"pbrMetallicRoughness":{
				"metallicFactor":0,
				"roughnessFactor":0.15000000596046448
			}
		},
		{
			"doubleSided":true,
			"name":"Material.011",
			"pbrMetallicRoughness":{
				"baseColorFactor":[
					0.1340000033378601,
					0.402459979057312,
					1,
					1
				],
				"metallicFactor":0,
				"roughnessFactor":0.25
			}
		},
		{
			"doubleSided":true,
			"name":"Material.010",
			"pbrMetallicRoughness":{
				"baseColorFactor":[
					0.0764598548412323,
					0.27525439858436584,
					0.8001017570495605,
					1
				],
				"metallicFactor":0,
				"roughnessFactor":0.25
			}
		}
	],
	"meshes":[
		{
			"name":"Plane",
			"primitives":[
				{
					"attributes":{
						"POSITION":0,
						"NORMAL":1,
						"TEXCOORD_0":2
					},
					"indices":3,
					"material":0
				}
			]
		},
		{
			"name":"Plane.001",
			"primitives":[
				{
					"attributes":{
						"POSITION":4,
						"NORMAL":5,
						"TEXCOORD_0":6
					},
					"indices":7,
					"material":1
				}
			]
		},
		{
			"name":"Plane.002",
			"primitives":[
				{
					"attributes":{
						"POSITION":8,
						"NORMAL":9,
						"TEXCOORD_0":10
					},
					"indices":11,
					"material":2
				}
			]
		},
		{
			"name":"Vert.003",
			"primitives":[
				{
					"attributes":{
						"POSITION":12,
						"NORMAL":13,
						"TEXCOORD_0":14
					},
					"indices":15,
					"material":3
				}
			]
		},
		{
			"name":"Plane.007",
			"primitives":[
				{
					"attributes":{
						"POSITION":16,
						"NORMAL":17,
						"TEXCOORD_0":18
					},
					"indices":19,
					"material":4
				}
			]
		},
		{
			"name":"Plane.008",
			"primitives":[
				{
					"attributes":{
						"POSITION":20,
						"NORMAL":21,
						"TEXCOORD_0":22
					},
					"indices":23,
					"material":5
				}
			]
		},
		{
			"name":"Plane.005",
			"primitives":[
				{
					"attributes":{
						"POSITION":24,
						"NORMAL":25,
						"TEXCOORD_0":26
					},
					"indices":27,
					"material":5
				}
			]
		},
		{
			"name":"Plane.010",
			"primitives":[
				{
					"attributes":{
						"POSITION":28,
						"NORMAL":29,
						"TEXCOORD_0":30
					},
					"indices":31,
					"material":5
				},
				{
					"attributes":{
						"POSITION":32,
						"NORMAL":33,
						"TEXCOORD_0":34
					},
					"indices":35,
					"material":6
				},
				{
					"attributes":{
						"POSITION":36,
						"NORMAL":37,
						"TEXCOORD_0":38
					},
					"indices":39,
					"material":7
				},
				{
					"attributes":{
						"POSITION":40,
						"NORMAL":41,
						"TEXCOORD_0":42
					},
					"indices":43,
					"material":6
				}
			]
		},
		{
			"name":"Plane.011",
			"primitives":[
				{
					"attributes":{
						"POSITION":44,
						"NORMAL":45,
						"TEXCOORD_0":46
					},
					"indices":47,
					"material":5
				},
				{
					"attributes":{
						"POSITION":48,
						"NORMAL":49,
						"TEXCOORD_0":50
					},
					"indices":51,
					"material":3
				}
			]
		},
		{
			"name":"Text",
			"primitives":[
				{
					"attributes":{
						"POSITION":52,
						"NORMAL":53,
						"TEXCOORD_0":54
					},
					"indices":55,
					"material":8
				}
			]
		},
		{
			"name":"Plane.013",
			"primitives":[
				{
					"attributes":{
						"POSITION":56,
						"NORMAL":57,
						"TEXCOORD_0":58
					},
					"indices":59,
					"material":3
				}
			]
		},
		{
			"name":"Plane.005",
			"primitives":[
				{
					"attributes":{
						"POSITION":60,
						"NORMAL":61,
						"TEXCOORD_0":62
					},
					"indices":63,
					"material":9
				}
			]
		}
	],
	"accessors":[
		{
			"bufferView":0,
			"componentType":5126,
			"count":15916,
			"max":[
				1.40845787525177,
				0,
				0.9998537302017212
			],
			"min":[
				-1.40845787525177,
				-0.09584411978721619,
				-0.9998537302017212
			],
			"type":"VEC3"
		},
		{
			"bufferView":1,
			"componentType":5126,
			"count":15916,
			"type":"VEC3"
		},
		{
			"bufferView":2,
			"componentType":5126,
			"count":15916,
			"type":"VEC2"
		},
		{
			"bufferView":3,
			"componentType":5123,
			"count":95424,
			"type":"SCALAR"
		},
		{
			"bufferView":4,
			"componentType":5126,
			"count":14058,
			"max":[
				1.40831458568573,
				0,
				0.9998535513877869
			],
			"min":[
				-1.40831458568573,
				-0.04672215133905411,
				-0.9998535513877869
			],
			"type":"VEC3"
		},
		{
			"bufferView":5,
			"componentType":5126,
			"count":14058,
			"type":"VEC3"
		},
		{
			"bufferView":6,
			"componentType":5126,
			"count":14058,
			"type":"VEC2"
		},
		{
			"bufferView":7,
			"componentType":5123,
			"count":78336,
			"type":"SCALAR"
		},
		{
			"bufferView":8,
			"componentType":5126,
			"count":4608,
			"max":[
				1.5128402709960938,
				0.056567441672086716,
				1.1042362451553345
			],
			"min":[
				-1.5128403902053833,
				-0.26418179273605347,
				-1.1042362451553345
			],
			"type":"VEC3"
		},
		{
			"bufferView":9,
			"componentType":5126,
			"count":4608,
			"type":"VEC3"
		},
		{
			"bufferView":10,
			"componentType":5126,
			"count":4608,
			"type":"VEC2"
		},
		{
			"bufferView":11,
			"componentType":5123,
			"count":27648,
			"type":"SCALAR"
		},
		{
			"bufferView":12,
			"componentType":5126,
			"count":728,
			"max":[
				0.1515684574842453,
				0.08153679966926575,
				0.059470608830451965
			],
			"min":[
				-2.633925437927246,
				-0.5530136227607727,
				-1.1995658874511719
			],
			"type":"VEC3"
		},
		{
			"bufferView":13,
			"componentType":5126,
			"count":728,
			"type":"VEC3"
		},
		{
			"bufferView":14,
			"componentType":5126,
			"count":728,
			"type":"VEC2"
		},
		{
			"bufferView":15,
			"componentType":5123,
			"count":3456,
			"type":"SCALAR"
		},
		{
			"bufferView":16,
			"componentType":5126,
			"count":17732,
			"max":[
				0.7984036207199097,
				0.2609140872955322,
				1.2036375999450684
			],
			"min":[
				-0.7984036207199097,
				-0.26453569531440735,
				-1.2036375999450684
			],
			"type":"VEC3"
		},
		{
			"bufferView":17,
			"componentType":5126,
			"count":17732,
			"type":"VEC3"
		},
		{
			"bufferView":18,
			"componentType":5126,
			"count":17732,
			"type":"VEC2"
		},
		{
			"bufferView":19,
			"componentType":5123,
			"count":106368,
			"type":"SCALAR"
		},
		{
			"bufferView":20,
			"componentType":5126,
			"count":6796,
			"max":[
				0.926155149936676,
				0.3157855272293091,
				1.2434853315353394
			],
			"min":[
				-0.926155149936676,
				0.12284887582063675,
				-1.2434852123260498
			],
			"type":"VEC3"
		},
		{
			"bufferView":21,
			"componentType":5126,
			"count":6796,
			"type":"VEC3"
		},
		{
			"bufferView":22,
			"componentType":5126,
			"count":6796,
			"type":"VEC2"
		},
		{
			"bufferView":23,
			"componentType":5123,
			"count":40704,
			"type":"SCALAR"
		},
		{
			"bufferView":24,
			"componentType":5126,
			"count":104,
			"max":[
				0.03999999910593033,
				0.8297625184059143,
				0.03999999910593033
			],
			"min":[
				-2.810619592666626,
				0,
				-1.9934114217758179
			],
			"type":"VEC3"
		},
		{
			"bufferView":25,
			"componentType":5126,
			"count":104,
			"type":"VEC3"
		},
		{
			"bufferView":26,
			"componentType":5126,
			"count":104,
			"type":"VEC2"
		},
		{
			"bufferView":27,
			"componentType":5123,
			"count":288,
			"type":"SCALAR"
		},
		{
			"bufferView":28,
			"componentType":5126,
			"count":720,
			"max":[
				0.5200198292732239,
				0.11119575053453445,
				2.5013937950134277
			],
			"min":[
				-1.4388792514801025,
				-2.5159151554107666,
				-1.7814090251922607
			],
			"type":"VEC3"
		},
		{
			"bufferView":29,
			"componentType":5126,
			"count":720,
			"type":"VEC3"
		},
		{
			"bufferView":30,
			"componentType":5126,
			"count":720,
			"type":"VEC2"
		},
		{
			"bufferView":31,
			"componentType":5123,
			"count":4008,
			"type":"SCALAR"
		},
		{
			"bufferView":32,
			"componentType":5126,
			"count":400,
			"max":[
				0.5200198292732239,
				0.16041402518749237,
				2.5529885292053223
			],
			"min":[
				-1.4810607433319092,
				-2.533508777618408,
				-1.8330037593841553
			],
			"type":"VEC3"
		},
		{
			"bufferView":33,
			"componentType":5126,
			"count":400,
			"type":"VEC3"
		},
		{
			"bufferView":34,
			"componentType":5126,
			"count":400,
			"type":"VEC2"
		},
		{
			"bufferView":35,
			"componentType":5123,
			"count":2136,
			"type":"SCALAR"
		},
		{
			"bufferView":36,
			"componentType":5126,
			"count":2688,
			"max":[
				0.4576660990715027,
				1.19674950838089e-07,
				2.324960231781006
			],
			"min":[
				-1.3108060359954834,
				-2.4141860008239746,
				-1.6049754619598389
			],
			"type":"VEC3"
		},
		{
			"bufferView":37,
			"componentType":5126,
			"count":2688,
			"type":"VEC3"
		},
		{
			"bufferView":38,
			"componentType":5126,
			"count":2688,
			"type":"VEC2"
		},
		{
			"bufferView":39,
			"componentType":5123,
			"count":15840,
			"type":"SCALAR"
		},
		{
			"bufferView":40,
			"componentType":5126,
			"count":960,
			"max":[
				0.5200198292732239,
				-8.430888764898725e-10,
				2.3718972206115723
			],
			"min":[
				-1.3330090045928955,
				-2.471756935119629,
				-1.6519124507904053
			],
			"type":"VEC3"
		},
		{
			"bufferView":41,
			"componentType":5126,
			"count":960,
			"type":"VEC3"
		},
		{
			"bufferView":42,
			"componentType":5126,
			"count":960,
			"type":"VEC2"
		},
		{
			"bufferView":43,
			"componentType":5123,
			"count":5760,
			"type":"SCALAR"
		},
		{
			"bufferView":44,
			"componentType":5126,
			"count":220,
			"max":[
				1,
				0.0851772353053093,
				1
			],
			"min":[
				-1,
				-0.18683010339736938,
				-1
			],
			"type":"VEC3"
		},
		{
			"bufferView":45,
			"componentType":5126,
			"count":220,
			"type":"VEC3"
		},
		{
			"bufferView":46,
			"componentType":5126,
			"count":220,
			"type":"VEC2"
		},
		{
			"bufferView":47,
			"componentType":5123,
			"count":1188,
			"type":"SCALAR"
		},
		{
			"bufferView":48,
			"componentType":5126,
			"count":80,
			"max":[
				0.9964852333068848,
				0.08869194984436035,
				0.9964852333068848
			],
			"min":[
				-0.9964852333068848,
				0.0851772353053093,
				-0.9964852333068848
			],
			"type":"VEC3"
		},
		{
			"bufferView":49,
			"componentType":5126,
			"count":80,
			"type":"VEC3"
		},
		{
			"bufferView":50,
			"componentType":5126,
			"count":80,
			"type":"VEC2"
		},
		{
			"bufferView":51,
			"componentType":5123,
			"count":360,
			"type":"SCALAR"
		},
		{
			"bufferView":52,
			"componentType":5126,
			"count":1396,
			"max":[
				0.9543824791908264,
				0.07400000095367432,
				0.010101010091602802
			],
			"min":[
				0.02346041053533554,
				-0.07400000095367432,
				-0.5376344323158264
			],
			"type":"VEC3"
		},
		{
			"bufferView":53,
			"componentType":5126,
			"count":1396,
			"type":"VEC3"
		},
		{
			"bufferView":54,
			"componentType":5126,
			"count":1396,
			"type":"VEC2"
		},
		{
			"bufferView":55,
			"componentType":5123,
			"count":4068,
			"type":"SCALAR"
		},
		{
			"bufferView":56,
			"componentType":5126,
			"count":4608,
			"max":[
				1.5809439420700073,
				0.056567441672086716,
				1.1723397970199585
			],
			"min":[
				-1.5809439420700073,
				-0.26418179273605347,
				-1.172339916229248
			],
			"type":"VEC3"
		},
		{
			"bufferView":57,
			"componentType":5126,
			"count":4608,
			"type":"VEC3"
		},
		{
			"bufferView":58,
			"componentType":5126,
			"count":4608,
			"type":"VEC2"
		},
		{
			"bufferView":59,
			"componentType":5123,
			"count":27648,
			"type":"SCALAR"
		},
		{
			"bufferView":60,
			"componentType":5126,
			"count":4970,
			"max":[
				0.9996302127838135,
				0.11308883130550385,
				0.9996302127838135
			],
			"min":[
				-0.9996300339698792,
				0.00015021178114693612,
				-0.9996302127838135
			],
			"type":"VEC3"
		},
		{
			"bufferView":61,
			"componentType":5126,
			"count":4970,
			"type":"VEC3"
		},
		{
			"bufferView":62,
			"componentType":5126,
			"count":4970,
			"type":"VEC2"
		},
		{
			"bufferView":63,
			"componentType":5123,
			"count":28800,
			"type":"SCALAR"
		}
	],
	"bufferViews":[
		{
			"buffer":0,
			"byteLength":190992,
			"byteOffset":0,
			"target":34962
		},
		{
			"buffer":0,
			"byteLength":190992,
			"byteOffset":190992,
			"target":34962
		},
		{
			"buffer":0,
			"byteLength":127328,
			"byteOffset":381984,
			"target":34962
		},
		{
			"buffer":0,
			"byteLength":190848,
			"byteOffset":509312,
			"target":34963
		},
		{
			"buffer":0,
			"byteLength":168696,
			"byteOffset":700160,
			"target":34962
		},
		{
			"buffer":0,
			"byteLength":168696,
			"byteOffset":868856,
			"target":34962
		},
		{
			"buffer":0,
			"byteLength":112464,
			"byteOffset":1037552,
			"target":34962
		},
		{
			"buffer":0,
			"byteLength":156672,
			"byteOffset":1150016,
			"target":34963
		},
		{
			"buffer":0,
			"byteLength":55296,
			"byteOffset":1306688,
			"target":34962
		},
		{
			"buffer":0,
			"byteLength":55296,
			"byteOffset":1361984,
			"target":34962
		},
		{
			"buffer":0,
			"byteLength":36864,
			"byteOffset":1417280,
			"target":34962
		},
		{
			"buffer":0,
			"byteLength":55296,
			"byteOffset":1454144,
			"target":34963
		},
		{
			"buffer":0,
			"byteLength":8736,
			"byteOffset":1509440,
			"target":34962
		},
		{
			"buffer":0,
			"byteLength":8736,
			"byteOffset":1518176,
			"target":34962
		},
		{
			"buffer":0,
			"byteLength":5824,
			"byteOffset":1526912,
			"target":34962
		},
		{
			"buffer":0,
			"byteLength":6912,
			"byteOffset":1532736,
			"target":34963
		},
		{
			"buffer":0,
			"byteLength":212784,
			"byteOffset":1539648,
			"target":34962
		},
		{
			"buffer":0,
			"byteLength":212784,
			"byteOffset":1752432,
			"target":34962
		},
		{
			"buffer":0,
			"byteLength":141856,
			"byteOffset":1965216,
			"target":34962
		},
		{
			"buffer":0,
			"byteLength":212736,
			"byteOffset":2107072,
			"target":34963
		},
		{
			"buffer":0,
			"byteLength":81552,
			"byteOffset":2319808,
			"target":34962
		},
		{
			"buffer":0,
			"byteLength":81552,
			"byteOffset":2401360,
			"target":34962
		},
		{
			"buffer":0,
			"byteLength":54368,
			"byteOffset":2482912,
			"target":34962
		},
		{
			"buffer":0,
			"byteLength":81408,
			"byteOffset":2537280,
			"target":34963
		},
		{
			"buffer":0,
			"byteLength":1248,
			"byteOffset":2618688,
			"target":34962
		},
		{
			"buffer":0,
			"byteLength":1248,
			"byteOffset":2619936,
			"target":34962
		},
		{
			"buffer":0,
			"byteLength":832,
			"byteOffset":2621184,
			"target":34962
		},
		{
			"buffer":0,
			"byteLength":576,
			"byteOffset":2622016,
			"target":34963
		},
		{
			"buffer":0,
			"byteLength":8640,
			"byteOffset":2622592,
			"target":34962
		},
		{
			"buffer":0,
			"byteLength":8640,
			"byteOffset":2631232,
			"target":34962
		},
		{
			"buffer":0,
			"byteLength":5760,
			"byteOffset":2639872,
			"target":34962
		},
		{
			"buffer":0,
			"byteLength":8016,
			"byteOffset":2645632,
			"target":34963
		},
		{
			"buffer":0,
			"byteLength":4800,
			"byteOffset":2653648,
			"target":34962
		},
		{
			"buffer":0,
			"byteLength":4800,
			"byteOffset":2658448,
			"target":34962
		},
		{
			"buffer":0,
			"byteLength":3200,
			"byteOffset":2663248,
			"target":34962
		},
		{
			"buffer":0,
			"byteLength":4272,
			"byteOffset":2666448,
			"target":34963
		},
		{
			"buffer":0,
			"byteLength":32256,
			"byteOffset":2670720,
			"target":34962
		},
		{
			"buffer":0,
			"byteLength":32256,
			"byteOffset":2702976,
			"target":34962
		},
		{
			"buffer":0,
			"byteLength":21504,
			"byteOffset":2735232,
			"target":34962
		},
		{
			"buffer":0,
			"byteLength":31680,
			"byteOffset":2756736,
			"target":34963
		},
		{
			"buffer":0,
			"byteLength":11520,
			"byteOffset":2788416,
			"target":34962
		},
		{
			"buffer":0,
			"byteLength":11520,
			"byteOffset":2799936,
			"target":34962
		},
		{
			"buffer":0,
			"byteLength":7680,
			"byteOffset":2811456,
			"target":34962
		},
		{
			"buffer":0,
			"byteLength":11520,
			"byteOffset":2819136,
			"target":34963
		},
		{
			"buffer":0,
			"byteLength":2640,
			"byteOffset":2830656,
			"target":34962
		},
		{
			"buffer":0,
			"byteLength":2640,
			"byteOffset":2833296,
			"target":34962
		},
		{
			"buffer":0,
			"byteLength":1760,
			"byteOffset":2835936,
			"target":34962
		},
		{
			"buffer":0,
			"byteLength":2376,
			"byteOffset":2837696,
			"target":34963
		},
		{
			"buffer":0,
			"byteLength":960,
			"byteOffset":2840072,
			"target":34962
		},
		{
			"buffer":0,
			"byteLength":960,
			"byteOffset":2841032,
			"target":34962
		},
		{
			"buffer":0,
			"byteLength":640,
			"byteOffset":2841992,
			"target":34962
		},
		{
			"buffer":0,
			"byteLength":720,
			"byteOffset":2842632,
			"target":34963
		},
		{
			"buffer":0,
			"byteLength":16752,
			"byteOffset":2843352,
			"target":34962
		},
		{
			"buffer":0,
			"byteLength":16752,
			"byteOffset":2860104,
			"target":34962
		},
		{
			"buffer":0,
			"byteLength":11168,
			"byteOffset":2876856,
			"target":34962
		},
		{
			"buffer":0,
			"byteLength":8136,
			"byteOffset":2888024,
			"target":34963
		},
		{
			"buffer":0,
			"byteLength":55296,
			"byteOffset":2896160,
			"target":34962
		},
		{
			"buffer":0,
			"byteLength":55296,
			"byteOffset":2951456,
			"target":34962
		},
		{
			"buffer":0,
			"byteLength":36864,
			"byteOffset":3006752,
			"target":34962
		},
		{
			"buffer":0,
			"byteLength":55296,
			"byteOffset":3043616,
			"target":34963
		},
		{
			"buffer":0,
			"byteLength":59640,
			"byteOffset":3098912,
			"target":34962
		},
		{
			"buffer":0,
			"byteLength":59640,
			"byteOffset":3158552,
			"target":34962
		},
		{
			"buffer":0,
			"byteLength":39760,
			"byteOffset":3218192,
			"target":34962
		},
		{
			"buffer":0,
			"byteLength":57600,
			"byteOffset":3257952,
			"target":34963
		}
	],
	"buffers":[
		{
			"byteLength":3315552,
			"uri":"scene.bin"
		}
	]
}
