{
	"asset":{
		"generator":"Khronos glTF Blender I/O v4.0.43",
		"version":"2.0"
	},
	"scene":0,
	"scenes":[
		{
			"name":"Scene",
			"nodes":[
				0,
				1,
				2,
				3,
				4,
				5,
				6,
				7,
				8,
				9,
				10,
				11
			]
		}
	],
	"nodes":[
		{
			"mesh":0,
			"name":"Plane",
			"scale":[
				3.5053553581237793,
				3.5053553581237793,
				3.5053553581237793
			],
			"translation":[
				0,
				1.1506588459014893,
				0
			]
		},
		{
			"mesh":1,
			"name":"Plane.001",
			"scale":[
				3.5053553581237793,
				3.5053553581237793,
				3.5053553581237793
			],
			"translation":[
				0,
				1.1506588459014893,
				0
			]
		},
		{
			"mesh":2,
			"name":"Plane.002",
			"scale":[
				3.5053553581237793,
				3.5053553581237793,
				3.5053553581237793
			],
			"translation":[
				0,
				1.1506588459014893,
				0
			]
		},
		{
			"mesh":3,
			"name":"Vert.003",
			"scale":[
				3.5053553581237793,
				3.5053553581237793,
				3.5053553581237793
			],
			"translation":[
				4.350771427154541,
				3.088503837585449,
				2.00018048286438
			]
		},
		{
			"mesh":4,
			"name":"Plane.003",
			"scale":[
				3.5053553581237793,
				3.5053553581237793,
				3.5053553581237793
			],
			"translation":[
				0,
				1.1506588459014893,
				0
			]
		},
		{
			"mesh":5,
			"name":"Plane.004",
			"scale":[
				3.5053553581237793,
				3.5053553581237793,
				3.5053553581237793
			],
			"translation":[
				0,
				1.1506588459014893,
				0
			]
		},
		{
			"mesh":6,
			"name":"Plane.005",
			"scale":[
				3.5053553581237793,
				3.5053553581237793,
				3.5053553581237793
			],
			"translation":[
				4.8560028076171875,
				1.3501883745193481,
				3.4237005710601807
			]
		},
		{
			"mesh":7,
			"name":"Plane.006",
			"rotation":[
				0.1806032359600067,
				-0.3373856842517853,
				-0.4360148012638092,
				0.8145211338996887
			],
			"scale":[
				3.8166234493255615,
				3.816622018814087,
				2.813368558883667
			],
			"translation":[
				3.953434944152832,
				5.602503299713135,
				2.521131992340088
			]
		},
		{
			"mesh":8,
			"name":"Plane.007",
			"rotation":[
				0.7071068286895752,
				0,
				0,
				0.7071068286895752
			],
			"scale":[
				3.1059956550598145,
				3.4809720516204834,
				1.908713936805725
			],
			"translation":[
				-0.006104938220232725,
				3.8615634441375732,
				-5.327261447906494
			]
		},
		{
			"mesh":9,
			"name":"Text",
			"rotation":[
				0.7071068286895752,
				0,
				0,
				0.7071068286895752
			],
			"scale":[
				4.375200271606445,
				4.375200271606445,
				4.375200271606445
			],
			"translation":[
				-2.2642734050750732,
				2.7812111377716064,
				-5.327261447906494
			]
		},
		{
			"mesh":10,
			"name":"Plane.009",
			"scale":[
				3.5053553581237793,
				3.5053553581237793,
				3.5053553581237793
			],
			"translation":[
				0,
				1.1506588459014893,
				0
			]
		},
		{
			"mesh":11,
			"name":"Plane.010",
			"scale":[
				6.593494415283203,
				6.122888565063477,
				6.122888565063477
			],
			"translation":[
				0,
				-0.014795251190662384,
				-0.5756453275680542
			]
		}
	],
	"materials":[
		{
			"doubleSided":true,
			"name":"Material.002",
			"pbrMetallicRoughness":{
				"baseColorFactor":[
					0.33431336283683777,
					0.5609999895095825,
					0.052733954042196274,
					1
				],
				"metallicFactor":0,
				"roughnessFactor":0.5
			}
		},
		{
			"doubleSided":true,
			"name":"Material.003",
			"pbrMetallicRoughness":{
				"metallicFactor":0,
				"roughnessFactor":0.5
			}
		},
		{
			"doubleSided":true,
			"name":"Material.009",
			"pbrMetallicRoughness":{
				"baseColorFactor":[
					0.1935988813638687,
					0.1935988813638687,
					0.1935988813638687,
					1
				],
				"metallicFactor":0,
				"roughnessFactor":0.5
			}
		},
		{
			"doubleSided":true,
			"name":"Material.004",
			"pbrMetallicRoughness":{
				"baseColorFactor":[
					0.800000011920929,
					0.21945920586585999,
					0.017600012943148613,
					1
				],
				"metallicFactor":0,
				"roughnessFactor":0.1550000011920929
			}
		},
		{
			"doubleSided":true,
			"name":"Material.008",
			"pbrMetallicRoughness":{
				"baseColorFactor":[
					0.2280488908290863,
					0.41406184434890747,
					0.8001194596290588,
					1
				],
				"metallicFactor":0,
				"roughnessFactor":0.5
			}
		},
		{
			"doubleSided":true,
			"name":"Material.005",
			"pbrMetallicRoughness":{
				"baseColorFactor":[
					0.009221273474395275,
					0.0077643985860049725,
					0.023600000888109207,
					1
				],
				"metallicFactor":0,
				"roughnessFactor":0.15000000596046448
			}
		},
		{
			"doubleSided":true,
			"name":"Material.005",
			"pbrMetallicRoughness":{
				"baseColorFactor":[
					0.009221273474395275,
					0.0077643985860049725,
					0.023600000888109207,
					1
				],
				"metallicFactor":0,
				"roughnessFactor":0.15000000596046448
			}
		},
		{
			"doubleSided":true,
			"name":"Material",
			"pbrMetallicRoughness":{
				"baseColorFactor":[
					0.800000011920929,
					0.800000011920929,
					0.800000011920929,
					1
				],
				"metallicFactor":0,
				"roughnessFactor":0.5
			}
		},
		{
			"doubleSided":true,
			"name":"Material.007",
			"pbrMetallicRoughness":{
				"metallicFactor":0,
				"roughnessFactor":0.15000000596046448
			}
		},
		{
			"doubleSided":true,
			"name":"Material.004",
			"pbrMetallicRoughness":{
				"baseColorFactor":[
					0.800000011920929,
					0.21945920586585999,
					0.017600012943148613,
					1
				],
				"metallicFactor":0,
				"roughnessFactor":0.1550000011920929
			}
		},
		{
			"doubleSided":true,
			"name":"Material.011",
			"pbrMetallicRoughness":{
				"baseColorFactor":[
					0.1340000033378601,
					0.402459979057312,
					1,
					1
				],
				"metallicFactor":0,
				"roughnessFactor":0.25
			}
		},
		{
			"doubleSided":true,
			"name":"Material.010",
			"pbrMetallicRoughness":{
				"baseColorFactor":[
					0.0764598548412323,
					0.27525439858436584,
					0.8001017570495605,
					1
				],
				"metallicFactor":0,
				"roughnessFactor":0.25
			}
		}
	],
	"meshes":[
		{
			"name":"Plane",
			"primitives":[
				{
					"attributes":{
						"POSITION":0,
						"NORMAL":1,
						"TEXCOORD_0":2
					},
					"indices":3,
					"material":0
				}
			]
		},
		{
			"name":"Plane.001",
			"primitives":[
				{
					"attributes":{
						"POSITION":4,
						"NORMAL":5,
						"TEXCOORD_0":6
					},
					"indices":7,
					"material":1
				}
			]
		},
		{
			"name":"Plane.002",
			"primitives":[
				{
					"attributes":{
						"POSITION":8,
						"NORMAL":9,
						"TEXCOORD_0":10
					},
					"indices":11,
					"material":2
				}
			]
		},
		{
			"name":"Vert.003",
			"primitives":[
				{
					"attributes":{
						"POSITION":12,
						"NORMAL":13,
						"TEXCOORD_0":14
					},
					"indices":15,
					"material":3
				}
			]
		},
		{
			"name":"Plane.007",
			"primitives":[
				{
					"attributes":{
						"POSITION":16,
						"NORMAL":17,
						"TEXCOORD_0":18
					},
					"indices":19,
					"material":4
				}
			]
		},
		{
			"name":"Plane.008",
			"primitives":[
				{
					"attributes":{
						"POSITION":20,
						"NORMAL":21,
						"TEXCOORD_0":22
					},
					"indices":23,
					"material":5
				}
			]
		},
		{
			"name":"Plane.005",
			"primitives":[
				{
					"attributes":{
						"POSITION":24,
						"NORMAL":25,
						"TEXCOORD_0":26
					},
					"indices":27,
					"material":6
				}
			]
		},
		{
			"name":"Plane.010",
			"primitives":[
				{
					"attributes":{
						"POSITION":28,
						"NORMAL":29,
						"TEXCOORD_0":30
					},
					"indices":31,
					"material":5
				},
				{
					"attributes":{
						"POSITION":32,
						"NORMAL":33,
						"TEXCOORD_0":34
					},
					"indices":35,
					"material":7
				},
				{
					"attributes":{
						"POSITION":36,
						"NORMAL":37,
						"TEXCOORD_0":38
					},
					"indices":39,
					"material":8
				},
				{
					"attributes":{
						"POSITION":40,
						"NORMAL":41,
						"TEXCOORD_0":42
					},
					"indices":43,
					"material":7
				}
			]
		},
		{
			"name":"Plane.011",
			"primitives":[
				{
					"attributes":{
						"POSITION":44,
						"NORMAL":45,
						"TEXCOORD_0":46
					},
					"indices":47,
					"material":5
				},
				{
					"attributes":{
						"POSITION":48,
						"NORMAL":49,
						"TEXCOORD_0":50
					},
					"indices":51,
					"material":9
				}
			]
		},
		{
			"name":"Text",
			"primitives":[
				{
					"attributes":{
						"POSITION":52,
						"NORMAL":53,
						"TEXCOORD_0":54
					},
					"indices":55,
					"material":10
				}
			]
		},
		{
			"name":"Plane.013",
			"primitives":[
				{
					"attributes":{
						"POSITION":56,
						"NORMAL":57,
						"TEXCOORD_0":58
					},
					"indices":59,
					"material":9
				}
			]
		},
		{
			"name":"Plane.005",
			"primitives":[
				{
					"attributes":{
						"POSITION":60,
						"NORMAL":61,
						"TEXCOORD_0":62
					},
					"indices":63,
					"material":11
				}
			]
		}
	],
	"accessors":[
		{
			"bufferView":0,
			"componentType":5126,
			"count":18164,
			"max":[
				1.40845787525177,
				0,
				0.9998537302017212
			],
			"min":[
				-1.40845787525177,
				-0.09584411978721619,
				-0.9998537302017212
			],
			"type":"VEC3"
		},
		{
			"bufferView":1,
			"componentType":5126,
			"count":18164,
			"type":"VEC3"
		},
		{
			"bufferView":2,
			"componentType":5126,
			"count":18164,
			"type":"VEC2"
		},
		{
			"bufferView":3,
			"componentType":5123,
			"count":95424,
			"type":"SCALAR"
		},
		{
			"bufferView":4,
			"componentType":5126,
			"count":15579,
			"max":[
				1.40831458568573,
				0,
				0.9998535513877869
			],
			"min":[
				-1.40831458568573,
				-0.04672215133905411,
				-0.9998535513877869
			],
			"type":"VEC3"
		},
		{
			"bufferView":5,
			"componentType":5126,
			"count":15579,
			"type":"VEC3"
		},
		{
			"bufferView":6,
			"componentType":5126,
			"count":15579,
			"type":"VEC2"
		},
		{
			"bufferView":7,
			"componentType":5123,
			"count":78336,
			"type":"SCALAR"
		},
		{
			"bufferView":8,
			"componentType":5126,
			"count":5018,
			"max":[
				1.5128402709960938,
				0.056567441672086716,
				1.1042362451553345
			],
			"min":[
				-1.5128403902053833,
				-0.26418179273605347,
				-1.1042362451553345
			],
			"type":"VEC3"
		},
		{
			"bufferView":9,
			"componentType":5126,
			"count":5018,
			"type":"VEC3"
		},
		{
			"bufferView":10,
			"componentType":5126,
			"count":5018,
			"type":"VEC2"
		},
		{
			"bufferView":11,
			"componentType":5123,
			"count":27648,
			"type":"SCALAR"
		},
		{
			"bufferView":12,
			"componentType":5126,
			"count":728,
			"max":[
				0.1515684574842453,
				0.08153679966926575,
				0.059470608830451965
			],
			"min":[
				-2.633925199508667,
				-0.5530136227607727,
				-1.1995658874511719
			],
			"type":"VEC3"
		},
		{
			"bufferView":13,
			"componentType":5126,
			"count":728,
			"type":"VEC3"
		},
		{
			"bufferView":14,
			"componentType":5126,
			"count":728,
			"type":"VEC2"
		},
		{
			"bufferView":15,
			"componentType":5123,
			"count":3456,
			"type":"SCALAR"
		},
		{
			"bufferView":16,
			"componentType":5126,
			"count":17732,
			"max":[
				0.7984036207199097,
				0.2609140872955322,
				1.2036375999450684
			],
			"min":[
				-0.7984036207199097,
				-0.26453569531440735,
				-1.2036375999450684
			],
			"type":"VEC3"
		},
		{
			"bufferView":17,
			"componentType":5126,
			"count":17732,
			"type":"VEC3"
		},
		{
			"bufferView":18,
			"componentType":5126,
			"count":17732,
			"type":"VEC2"
		},
		{
			"bufferView":19,
			"componentType":5123,
			"count":106368,
			"type":"SCALAR"
		},
		{
			"bufferView":20,
			"componentType":5126,
			"count":6796,
			"max":[
				0.926155149936676,
				0.3157855272293091,
				1.2434853315353394
			],
			"min":[
				-0.926155149936676,
				0.12284887582063675,
				-1.2434852123260498
			],
			"type":"VEC3"
		},
		{
			"bufferView":21,
			"componentType":5126,
			"count":6796,
			"type":"VEC3"
		},
		{
			"bufferView":22,
			"componentType":5126,
			"count":6796,
			"type":"VEC2"
		},
		{
			"bufferView":23,
			"componentType":5123,
			"count":40704,
			"type":"SCALAR"
		},
		{
			"bufferView":24,
			"componentType":5126,
			"count":104,
			"max":[
				0.03999999910593033,
				0.8297625184059143,
				0.03999999910593033
			],
			"min":[
				-2.810619354248047,
				0,
				-1.9934114217758179
			],
			"type":"VEC3"
		},
		{
			"bufferView":25,
			"componentType":5126,
			"count":104,
			"type":"VEC3"
		},
		{
			"bufferView":26,
			"componentType":5126,
			"count":104,
			"type":"VEC2"
		},
		{
			"bufferView":27,
			"componentType":5123,
			"count":288,
			"type":"SCALAR"
		},
		{
			"bufferView":28,
			"componentType":5126,
			"count":780,
			"max":[
				0.5200198292732239,
				0.11119575053453445,
				2.5013937950134277
			],
			"min":[
				-1.4388792514801025,
				-2.5159151554107666,
				-1.7814090251922607
			],
			"type":"VEC3"
		},
		{
			"bufferView":29,
			"componentType":5126,
			"count":780,
			"type":"VEC3"
		},
		{
			"bufferView":30,
			"componentType":5126,
			"count":780,
			"type":"VEC2"
		},
		{
			"bufferView":31,
			"componentType":5123,
			"count":4008,
			"type":"SCALAR"
		},
		{
			"bufferView":32,
			"componentType":5126,
			"count":424,
			"max":[
				0.5200198292732239,
				0.16041402518749237,
				2.5529885292053223
			],
			"min":[
				-1.4810607433319092,
				-2.533508777618408,
				-1.8330037593841553
			],
			"type":"VEC3"
		},
		{
			"bufferView":33,
			"componentType":5126,
			"count":424,
			"type":"VEC3"
		},
		{
			"bufferView":34,
			"componentType":5126,
			"count":424,
			"type":"VEC2"
		},
		{
			"bufferView":35,
			"componentType":5123,
			"count":2136,
			"type":"SCALAR"
		},
		{
			"bufferView":36,
			"componentType":5126,
			"count":2688,
			"max":[
				0.4576660990715027,
				1.19674950838089e-07,
				2.324960231781006
			],
			"min":[
				-1.3108060359954834,
				-2.4141860008239746,
				-1.6049754619598389
			],
			"type":"VEC3"
		},
		{
			"bufferView":37,
			"componentType":5126,
			"count":2688,
			"type":"VEC3"
		},
		{
			"bufferView":38,
			"componentType":5126,
			"count":2688,
			"type":"VEC2"
		},
		{
			"bufferView":39,
			"componentType":5123,
			"count":15840,
			"type":"SCALAR"
		},
		{
			"bufferView":40,
			"componentType":5126,
			"count":1136,
			"max":[
				0.5200198292732239,
				-8.430888764898725e-10,
				2.3718972206115723
			],
			"min":[
				-1.3330090045928955,
				-2.471756935119629,
				-1.6519124507904053
			],
			"type":"VEC3"
		},
		{
			"bufferView":41,
			"componentType":5126,
			"count":1136,
			"type":"VEC3"
		},
		{
			"bufferView":42,
			"componentType":5126,
			"count":1136,
			"type":"VEC2"
		},
		{
			"bufferView":43,
			"componentType":5123,
			"count":5760,
			"type":"SCALAR"
		},
		{
			"bufferView":44,
			"componentType":5126,
			"count":245,
			"max":[
				1,
				0.0851772353053093,
				1
			],
			"min":[
				-1,
				-0.18683010339736938,
				-1
			],
			"type":"VEC3"
		},
		{
			"bufferView":45,
			"componentType":5126,
			"count":245,
			"type":"VEC3"
		},
		{
			"bufferView":46,
			"componentType":5126,
			"count":245,
			"type":"VEC2"
		},
		{
			"bufferView":47,
			"componentType":5123,
			"count":1188,
			"type":"SCALAR"
		},
		{
			"bufferView":48,
			"componentType":5126,
			"count":98,
			"max":[
				0.9964852333068848,
				0.08869194984436035,
				0.9964852333068848
			],
			"min":[
				-0.9964852333068848,
				0.0851772353053093,
				-0.9964852333068848
			],
			"type":"VEC3"
		},
		{
			"bufferView":49,
			"componentType":5126,
			"count":98,
			"type":"VEC3"
		},
		{
			"bufferView":50,
			"componentType":5126,
			"count":98,
			"type":"VEC2"
		},
		{
			"bufferView":51,
			"componentType":5123,
			"count":360,
			"type":"SCALAR"
		},
		{
			"bufferView":52,
			"componentType":5126,
			"count":1396,
			"max":[
				0.9543824791908264,
				0.07400000095367432,
				0.010101010091602802
			],
			"min":[
				0.02346041053533554,
				-0.07400000095367432,
				-0.5376344323158264
			],
			"type":"VEC3"
		},
		{
			"bufferView":53,
			"componentType":5126,
			"count":1396,
			"type":"VEC3"
		},
		{
			"bufferView":54,
			"componentType":5126,
			"count":1396,
			"type":"VEC2"
		},
		{
			"bufferView":55,
			"componentType":5123,
			"count":4068,
			"type":"SCALAR"
		},
		{
			"bufferView":56,
			"componentType":5126,
			"count":5048,
			"max":[
				1.5809439420700073,
				0.056567441672086716,
				1.1723397970199585
			],
			"min":[
				-1.5809439420700073,
				-0.26418179273605347,
				-1.172339916229248
			],
			"type":"VEC3"
		},
		{
			"bufferView":57,
			"componentType":5126,
			"count":5048,
			"type":"VEC3"
		},
		{
			"bufferView":58,
			"componentType":5126,
			"count":5048,
			"type":"VEC2"
		},
		{
			"bufferView":59,
			"componentType":5123,
			"count":27648,
			"type":"SCALAR"
		},
		{
			"bufferView":60,
			"componentType":5126,
			"count":5602,
			"max":[
				0.9996302127838135,
				0.11308883130550385,
				0.9996302127838135
			],
			"min":[
				-0.9996300339698792,
				0.00015021178114693612,
				-0.9996302127838135
			],
			"type":"VEC3"
		},
		{
			"bufferView":61,
			"componentType":5126,
			"count":5602,
			"type":"VEC3"
		},
		{
			"bufferView":62,
			"componentType":5126,
			"count":5602,
			"type":"VEC2"
		},
		{
			"bufferView":63,
			"componentType":5123,
			"count":28800,
			"type":"SCALAR"
		}
	],
	"bufferViews":[
		{
			"buffer":0,
			"byteLength":217968,
			"byteOffset":0,
			"target":34962
		},
		{
			"buffer":0,
			"byteLength":217968,
			"byteOffset":217968,
			"target":34962
		},
		{
			"buffer":0,
			"byteLength":145312,
			"byteOffset":435936,
			"target":34962
		},
		{
			"buffer":0,
			"byteLength":190848,
			"byteOffset":581248,
			"target":34963
		},
		{
			"buffer":0,
			"byteLength":186948,
			"byteOffset":772096,
			"target":34962
		},
		{
			"buffer":0,
			"byteLength":186948,
			"byteOffset":959044,
			"target":34962
		},
		{
			"buffer":0,
			"byteLength":124632,
			"byteOffset":1145992,
			"target":34962
		},
		{
			"buffer":0,
			"byteLength":156672,
			"byteOffset":1270624,
			"target":34963
		},
		{
			"buffer":0,
			"byteLength":60216,
			"byteOffset":1427296,
			"target":34962
		},
		{
			"buffer":0,
			"byteLength":60216,
			"byteOffset":1487512,
			"target":34962
		},
		{
			"buffer":0,
			"byteLength":40144,
			"byteOffset":1547728,
			"target":34962
		},
		{
			"buffer":0,
			"byteLength":55296,
			"byteOffset":1587872,
			"target":34963
		},
		{
			"buffer":0,
			"byteLength":8736,
			"byteOffset":1643168,
			"target":34962
		},
		{
			"buffer":0,
			"byteLength":8736,
			"byteOffset":1651904,
			"target":34962
		},
		{
			"buffer":0,
			"byteLength":5824,
			"byteOffset":1660640,
			"target":34962
		},
		{
			"buffer":0,
			"byteLength":6912,
			"byteOffset":1666464,
			"target":34963
		},
		{
			"buffer":0,
			"byteLength":212784,
			"byteOffset":1673376,
			"target":34962
		},
		{
			"buffer":0,
			"byteLength":212784,
			"byteOffset":1886160,
			"target":34962
		},
		{
			"buffer":0,
			"byteLength":141856,
			"byteOffset":2098944,
			"target":34962
		},
		{
			"buffer":0,
			"byteLength":212736,
			"byteOffset":2240800,
			"target":34963
		},
		{
			"buffer":0,
			"byteLength":81552,
			"byteOffset":2453536,
			"target":34962
		},
		{
			"buffer":0,
			"byteLength":81552,
			"byteOffset":2535088,
			"target":34962
		},
		{
			"buffer":0,
			"byteLength":54368,
			"byteOffset":2616640,
			"target":34962
		},
		{
			"buffer":0,
			"byteLength":81408,
			"byteOffset":2671008,
			"target":34963
		},
		{
			"buffer":0,
			"byteLength":1248,
			"byteOffset":2752416,
			"target":34962
		},
		{
			"buffer":0,
			"byteLength":1248,
			"byteOffset":2753664,
			"target":34962
		},
		{
			"buffer":0,
			"byteLength":832,
			"byteOffset":2754912,
			"target":34962
		},
		{
			"buffer":0,
			"byteLength":576,
			"byteOffset":2755744,
			"target":34963
		},
		{
			"buffer":0,
			"byteLength":9360,
			"byteOffset":2756320,
			"target":34962
		},
		{
			"buffer":0,
			"byteLength":9360,
			"byteOffset":2765680,
			"target":34962
		},
		{
			"buffer":0,
			"byteLength":6240,
			"byteOffset":2775040,
			"target":34962
		},
		{
			"buffer":0,
			"byteLength":8016,
			"byteOffset":2781280,
			"target":34963
		},
		{
			"buffer":0,
			"byteLength":5088,
			"byteOffset":2789296,
			"target":34962
		},
		{
			"buffer":0,
			"byteLength":5088,
			"byteOffset":2794384,
			"target":34962
		},
		{
			"buffer":0,
			"byteLength":3392,
			"byteOffset":2799472,
			"target":34962
		},
		{
			"buffer":0,
			"byteLength":4272,
			"byteOffset":2802864,
			"target":34963
		},
		{
			"buffer":0,
			"byteLength":32256,
			"byteOffset":2807136,
			"target":34962
		},
		{
			"buffer":0,
			"byteLength":32256,
			"byteOffset":2839392,
			"target":34962
		},
		{
			"buffer":0,
			"byteLength":21504,
			"byteOffset":2871648,
			"target":34962
		},
		{
			"buffer":0,
			"byteLength":31680,
			"byteOffset":2893152,
			"target":34963
		},
		{
			"buffer":0,
			"byteLength":13632,
			"byteOffset":2924832,
			"target":34962
		},
		{
			"buffer":0,
			"byteLength":13632,
			"byteOffset":2938464,
			"target":34962
		},
		{
			"buffer":0,
			"byteLength":9088,
			"byteOffset":2952096,
			"target":34962
		},
		{
			"buffer":0,
			"byteLength":11520,
			"byteOffset":2961184,
			"target":34963
		},
		{
			"buffer":0,
			"byteLength":2940,
			"byteOffset":2972704,
			"target":34962
		},
		{
			"buffer":0,
			"byteLength":2940,
			"byteOffset":2975644,
			"target":34962
		},
		{
			"buffer":0,
			"byteLength":1960,
			"byteOffset":2978584,
			"target":34962
		},
		{
			"buffer":0,
			"byteLength":2376,
			"byteOffset":2980544,
			"target":34963
		},
		{
			"buffer":0,
			"byteLength":1176,
			"byteOffset":2982920,
			"target":34962
		},
		{
			"buffer":0,
			"byteLength":1176,
			"byteOffset":2984096,
			"target":34962
		},
		{
			"buffer":0,
			"byteLength":784,
			"byteOffset":2985272,
			"target":34962
		},
		{
			"buffer":0,
			"byteLength":720,
			"byteOffset":2986056,
			"target":34963
		},
		{
			"buffer":0,
			"byteLength":16752,
			"byteOffset":2986776,
			"target":34962
		},
		{
			"buffer":0,
			"byteLength":16752,
			"byteOffset":3003528,
			"target":34962
		},
		{
			"buffer":0,
			"byteLength":11168,
			"byteOffset":3020280,
			"target":34962
		},
		{
			"buffer":0,
			"byteLength":8136,
			"byteOffset":3031448,
			"target":34963
		},
		{
			"buffer":0,
			"byteLength":60576,
			"byteOffset":3039584,
			"target":34962
		},
		{
			"buffer":0,
			"byteLength":60576,
			"byteOffset":3100160,
			"target":34962
		},
		{
			"buffer":0,
			"byteLength":40384,
			"byteOffset":3160736,
			"target":34962
		},
		{
			"buffer":0,
			"byteLength":55296,
			"byteOffset":3201120,
			"target":34963
		},
		{
			"buffer":0,
			"byteLength":67224,
			"byteOffset":3256416,
			"target":34962
		},
		{
			"buffer":0,
			"byteLength":67224,
			"byteOffset":3323640,
			"target":34962
		},
		{
			"buffer":0,
			"byteLength":44816,
			"byteOffset":3390864,
			"target":34962
		},
		{
			"buffer":0,
			"byteLength":57600,
			"byteOffset":3435680,
			"target":34963
		}
	],
	"buffers":[
		{
			"byteLength":3493280,
			"uri":"scene.bin"
		}
	]
}
