{
	"asset":{
		"generator":"Khronos glTF Blender I/O v4.0.43",
		"version":"2.0"
	},
	"scene":0,
	"scenes":[
		{
			"name":"Scene",
			"nodes":[
				0,
				1,
				2,
				3,
				4,
				5,
				6,
				7,
				8,
				9,
				10,
				11
			]
		}
	],
	"nodes":[
		{
			"mesh":0,
			"name":"Plane"
		},
		{
			"mesh":1,
			"name":"Plane.001"
		},
		{
			"mesh":2,
			"name":"Plane.002"
		},
		{
			"mesh":3,
			"name":"Vert.003"
		},
		{
			"mesh":4,
			"name":"Plane.003"
		},
		{
			"mesh":5,
			"name":"Plane.004"
		},
		{
			"mesh":6,
			"name":"Plane.005"
		},
		{
			"mesh":7,
			"name":"Plane.006"
		},
		{
			"mesh":8,
			"name":"Plane.007"
		},
		{
			"mesh":9,
			"name":"Text",
			"rotation":[
				0.7071068286895752,
				0,
				0,
				0.7071068286895752
			],
			"scale":[
				1.4823579788208008,
				1.4823579788208008,
				1.4823579788208008
			],
			"translation":[
				-0.7671566009521484,
				0.5524458885192871,
				-1.8049248456954956
			]
		},
		{
			"mesh":10,
			"name":"Plane.009"
		},
		{
			"mesh":11,
			"name":"Plane.010"
		}
	],
	"materials":[
		{
			"doubleSided":true,
			"name":"Material.002",
			"pbrMetallicRoughness":{
				"baseColorFactor":[
					0.33431336283683777,
					0.5609999895095825,
					0.052733954042196274,
					1
				],
				"metallicFactor":0,
				"roughnessFactor":0.5
			}
		},
		{
			"doubleSided":true,
			"name":"Material.003",
			"pbrMetallicRoughness":{
				"metallicFactor":0,
				"roughnessFactor":0.5
			}
		},
		{
			"doubleSided":true,
			"name":"Material.009",
			"pbrMetallicRoughness":{
				"baseColorFactor":[
					0.1935988813638687,
					0.1935988813638687,
					0.1935988813638687,
					1
				],
				"metallicFactor":0,
				"roughnessFactor":0.5
			}
		},
		{
			"doubleSided":true,
			"name":"Material.004",
			"pbrMetallicRoughness":{
				"baseColorFactor":[
					0.800000011920929,
					0.21945920586585999,
					0.017600012943148613,
					1
				],
				"metallicFactor":0,
				"roughnessFactor":0.1550000011920929
			}
		},
		{
			"doubleSided":true,
			"name":"Material.008",
			"pbrMetallicRoughness":{
				"baseColorFactor":[
					0.2280488908290863,
					0.41406184434890747,
					0.8001194596290588,
					1
				],
				"metallicFactor":0,
				"roughnessFactor":0.5
			}
		},
		{
			"doubleSided":true,
			"name":"Material.005",
			"pbrMetallicRoughness":{
				"baseColorFactor":[
					0.009221273474395275,
					0.0077643985860049725,
					0.023600000888109207,
					1
				],
				"metallicFactor":0,
				"roughnessFactor":0.15000000596046448
			}
		},
		{
			"doubleSided":true,
			"name":"Material",
			"pbrMetallicRoughness":{
				"baseColorFactor":[
					0.800000011920929,
					0.800000011920929,
					0.800000011920929,
					1
				],
				"metallicFactor":0,
				"roughnessFactor":0.5
			}
		},
		{
			"doubleSided":true,
			"name":"Material.007",
			"pbrMetallicRoughness":{
				"metallicFactor":0,
				"roughnessFactor":0
			}
		},
		{
			"doubleSided":true,
			"name":"Material.006",
			"pbrMetallicRoughness":{
				"metallicFactor":0,
				"roughnessFactor":0
			}
		},
		{
			"doubleSided":true,
			"name":"Material.010",
			"pbrMetallicRoughness":{
				"baseColorFactor":[
					0.0764598548412323,
					0.27525439858436584,
					0.8001017570495605,
					1
				],
				"metallicFactor":0,
				"roughnessFactor":0.25
			}
		}
	],
	"meshes":[
		{
			"name":"Plane",
			"primitives":[
				{
					"attributes":{
						"POSITION":0,
						"NORMAL":1,
						"TEXCOORD_0":2
					},
					"indices":3,
					"material":0
				}
			]
		},
		{
			"name":"Plane.001",
			"primitives":[
				{
					"attributes":{
						"POSITION":4,
						"NORMAL":5,
						"TEXCOORD_0":6
					},
					"indices":7,
					"material":1
				}
			]
		},
		{
			"name":"Plane.002",
			"primitives":[
				{
					"attributes":{
						"POSITION":8,
						"NORMAL":9,
						"TEXCOORD_0":10
					},
					"indices":11,
					"material":2
				}
			]
		},
		{
			"name":"Vert.003",
			"primitives":[
				{
					"attributes":{
						"POSITION":12,
						"NORMAL":13,
						"TEXCOORD_0":14
					},
					"indices":15,
					"material":3
				}
			]
		},
		{
			"name":"Plane.007",
			"primitives":[
				{
					"attributes":{
						"POSITION":16,
						"NORMAL":17,
						"TEXCOORD_0":18
					},
					"indices":19,
					"material":4
				}
			]
		},
		{
			"name":"Plane.008",
			"primitives":[
				{
					"attributes":{
						"POSITION":20,
						"NORMAL":21,
						"TEXCOORD_0":22
					},
					"indices":23,
					"material":5
				}
			]
		},
		{
			"name":"Plane.005",
			"primitives":[
				{
					"attributes":{
						"POSITION":24,
						"NORMAL":25,
						"TEXCOORD_0":26
					},
					"indices":27,
					"material":5
				}
			]
		},
		{
			"name":"Plane.010",
			"primitives":[
				{
					"attributes":{
						"POSITION":28,
						"NORMAL":29,
						"TEXCOORD_0":30
					},
					"indices":31,
					"material":5
				},
				{
					"attributes":{
						"POSITION":32,
						"NORMAL":33,
						"TEXCOORD_0":34
					},
					"indices":35,
					"material":6
				},
				{
					"attributes":{
						"POSITION":36,
						"NORMAL":37,
						"TEXCOORD_0":38
					},
					"indices":39,
					"material":7
				},
				{
					"attributes":{
						"POSITION":40,
						"NORMAL":41,
						"TEXCOORD_0":42
					},
					"indices":43,
					"material":6
				}
			]
		},
		{
			"name":"Plane.011",
			"primitives":[
				{
					"attributes":{
						"POSITION":44,
						"NORMAL":45,
						"TEXCOORD_0":46
					},
					"indices":47,
					"material":5
				},
				{
					"attributes":{
						"POSITION":48,
						"NORMAL":49,
						"TEXCOORD_0":50
					},
					"indices":51,
					"material":3
				}
			]
		},
		{
			"name":"Text",
			"primitives":[
				{
					"attributes":{
						"POSITION":52,
						"NORMAL":53,
						"TEXCOORD_0":54
					},
					"indices":55,
					"material":8
				}
			]
		},
		{
			"name":"Plane.013",
			"primitives":[
				{
					"attributes":{
						"POSITION":56,
						"NORMAL":57,
						"TEXCOORD_0":58
					},
					"indices":59,
					"material":3
				}
			]
		},
		{
			"name":"Plane.005",
			"primitives":[
				{
					"attributes":{
						"POSITION":60,
						"NORMAL":61,
						"TEXCOORD_0":62
					},
					"indices":63,
					"material":9
				}
			]
		}
	],
	"accessors":[
		{
			"bufferView":0,
			"componentType":5126,
			"count":15916,
			"max":[
				1.6727498769760132,
				0,
				1.1874727010726929
			],
			"min":[
				-1.6727498769760132,
				-0.11382891982793808,
				-1.1874727010726929
			],
			"type":"VEC3"
		},
		{
			"bufferView":1,
			"componentType":5126,
			"count":15916,
			"type":"VEC3"
		},
		{
			"bufferView":2,
			"componentType":5126,
			"count":15916,
			"type":"VEC2"
		},
		{
			"bufferView":3,
			"componentType":5123,
			"count":95424,
			"type":"SCALAR"
		},
		{
			"bufferView":4,
			"componentType":5126,
			"count":14058,
			"max":[
				1.6725797653198242,
				0,
				1.1874724626541138
			],
			"min":[
				-1.6725797653198242,
				-0.055489394813776016,
				-1.1874724626541138
			],
			"type":"VEC3"
		},
		{
			"bufferView":5,
			"componentType":5126,
			"count":14058,
			"type":"VEC3"
		},
		{
			"bufferView":6,
			"componentType":5126,
			"count":14058,
			"type":"VEC2"
		},
		{
			"bufferView":7,
			"componentType":5123,
			"count":78336,
			"type":"SCALAR"
		},
		{
			"bufferView":8,
			"componentType":5126,
			"count":4608,
			"max":[
				1.7967193126678467,
				0.06718211621046066,
				1.3114421367645264
			],
			"min":[
				-1.7967194318771362,
				-0.3137545585632324,
				-1.3114421367645264
			],
			"type":"VEC3"
		},
		{
			"bufferView":9,
			"componentType":5126,
			"count":4608,
			"type":"VEC3"
		},
		{
			"bufferView":10,
			"componentType":5126,
			"count":4608,
			"type":"VEC2"
		},
		{
			"bufferView":11,
			"componentType":5123,
			"count":27648,
			"type":"SCALAR"
		},
		{
			"bufferView":12,
			"componentType":5126,
			"count":728,
			"max":[
				1.6540906429290771,
				0.7533963322639465,
				0.7483094930648804
			],
			"min":[
				-1.6540906429290771,
				-0.00022516585886478424,
				-0.746980607509613
			],
			"type":"VEC3"
		},
		{
			"bufferView":13,
			"componentType":5126,
			"count":728,
			"type":"VEC3"
		},
		{
			"bufferView":14,
			"componentType":5126,
			"count":728,
			"type":"VEC2"
		},
		{
			"bufferView":15,
			"componentType":5123,
			"count":3456,
			"type":"SCALAR"
		},
		{
			"bufferView":16,
			"componentType":5126,
			"count":17732,
			"max":[
				0.9482212066650391,
				0.30987367033958435,
				1.4294958114624023
			],
			"min":[
				-0.9482212066650391,
				-0.3141748607158661,
				-1.4294958114624023
			],
			"type":"VEC3"
		},
		{
			"bufferView":17,
			"componentType":5126,
			"count":17732,
			"type":"VEC3"
		},
		{
			"bufferView":18,
			"componentType":5126,
			"count":17732,
			"type":"VEC2"
		},
		{
			"bufferView":19,
			"componentType":5123,
			"count":106368,
			"type":"SCALAR"
		},
		{
			"bufferView":20,
			"componentType":5126,
			"count":6796,
			"max":[
				1.099944829940796,
				0.37504154443740845,
				1.4768208265304565
			],
			"min":[
				-1.099944829940796,
				0.14590102434158325,
				-1.476820707321167
			],
			"type":"VEC3"
		},
		{
			"bufferView":21,
			"componentType":5126,
			"count":6796,
			"type":"VEC3"
		},
		{
			"bufferView":22,
			"componentType":5126,
			"count":6796,
			"type":"VEC2"
		},
		{
			"bufferView":23,
			"componentType":5123,
			"count":40704,
			"type":"SCALAR"
		},
		{
			"bufferView":24,
			"componentType":5126,
			"count":104,
			"max":[
				1.6927640438079834,
				1.0530668497085571,
				1.207486867904663
			],
			"min":[
				-1.6927640438079834,
				0.06760242581367493,
				-1.207486867904663
			],
			"type":"VEC3"
		},
		{
			"bufferView":25,
			"componentType":5126,
			"count":104,
			"type":"VEC3"
		},
		{
			"bufferView":26,
			"componentType":5126,
			"count":104,
			"type":"VEC2"
		},
		{
			"bufferView":27,
			"componentType":5123,
			"count":288,
			"type":"SCALAR"
		},
		{
			"bufferView":28,
			"componentType":5126,
			"count":720,
			"max":[
				1.992417812347412,
				1.604399561882019,
				1.5071405172348022
			],
			"min":[
				-1.9924180507659912,
				0.9550544619560242,
				-1.5071407556533813
			],
			"type":"VEC3"
		},
		{
			"bufferView":29,
			"componentType":5126,
			"count":720,
			"type":"VEC3"
		},
		{
			"bufferView":30,
			"componentType":5126,
			"count":720,
			"type":"VEC2"
		},
		{
			"bufferView":31,
			"componentType":5123,
			"count":4008,
			"type":"SCALAR"
		},
		{
			"bufferView":32,
			"componentType":5126,
			"count":400,
			"max":[
				2.027193307876587,
				1.637173056602478,
				1.541916012763977
			],
			"min":[
				-2.027193546295166,
				1.032271385192871,
				-1.5419162511825562
			],
			"type":"VEC3"
		},
		{
			"bufferView":33,
			"componentType":5126,
			"count":400,
			"type":"VEC3"
		},
		{
			"bufferView":34,
			"componentType":5126,
			"count":400,
			"type":"VEC2"
		},
		{
			"bufferView":35,
			"componentType":5123,
			"count":2136,
			"type":"SCALAR"
		},
		{
			"bufferView":36,
			"componentType":5126,
			"count":2688,
			"max":[
				1.8148517608642578,
				1.4600781202316284,
				1.3460981845855713
			],
			"min":[
				-1.814852237701416,
				0.9929800629615784,
				-1.3460983037948608
			],
			"type":"VEC3"
		},
		{
			"bufferView":37,
			"componentType":5126,
			"count":2688,
			"type":"VEC3"
		},
		{
			"bufferView":38,
			"componentType":5126,
			"count":2688,
			"type":"VEC2"
		},
		{
			"bufferView":39,
			"componentType":5123,
			"count":15840,
			"type":"SCALAR"
		},
		{
			"bufferView":40,
			"componentType":5126,
			"count":960,
			"max":[
				1.9051356315612793,
				1.5221420526504517,
				1.419858455657959
			],
			"min":[
				-1.9051358699798584,
				0.9218388199806213,
				-1.4198585748672485
			],
			"type":"VEC3"
		},
		{
			"bufferView":41,
			"componentType":5126,
			"count":960,
			"type":"VEC3"
		},
		{
			"bufferView":42,
			"componentType":5126,
			"count":960,
			"type":"VEC2"
		},
		{
			"bufferView":43,
			"componentType":5123,
			"count":5760,
			"type":"SCALAR"
		},
		{
			"bufferView":44,
			"componentType":5126,
			"count":220,
			"max":[
				1.0502712726593018,
				1.565168857574463,
				-1.704468011856079
			],
			"min":[
				-1.054408073425293,
				0.2717894911766052,
				-2.0252695083618164
			],
			"type":"VEC3"
		},
		{
			"bufferView":45,
			"componentType":5126,
			"count":220,
			"type":"VEC3"
		},
		{
			"bufferView":46,
			"componentType":5126,
			"count":220,
			"type":"VEC2"
		},
		{
			"bufferView":47,
			"componentType":5123,
			"count":1188,
			"type":"SCALAR"
		},
		{
			"bufferView":48,
			"componentType":5126,
			"count":80,
			"max":[
				1.0465725660324097,
				1.5628960132598877,
				-1.7003228664398193
			],
			"min":[
				-1.0507093667984009,
				0.27406245470046997,
				-1.7044681310653687
			],
			"type":"VEC3"
		},
		{
			"bufferView":49,
			"componentType":5126,
			"count":80,
			"type":"VEC3"
		},
		{
			"bufferView":50,
			"componentType":5126,
			"count":80,
			"type":"VEC2"
		},
		{
			"bufferView":51,
			"componentType":5123,
			"count":360,
			"type":"SCALAR"
		},
		{
			"bufferView":52,
			"componentType":5126,
			"count":1396,
			"max":[
				0.9543824791908264,
				0.07400000095367432,
				0.010101010091602802
			],
			"min":[
				0.02346041053533554,
				-0.07400000095367432,
				-0.5376344323158264
			],
			"type":"VEC3"
		},
		{
			"bufferView":53,
			"componentType":5126,
			"count":1396,
			"type":"VEC3"
		},
		{
			"bufferView":54,
			"componentType":5126,
			"count":1396,
			"type":"VEC2"
		},
		{
			"bufferView":55,
			"componentType":5123,
			"count":4068,
			"type":"SCALAR"
		},
		{
			"bufferView":56,
			"componentType":5126,
			"count":4608,
			"max":[
				1.8776023387908936,
				0.06718211621046066,
				1.3923251628875732
			],
			"min":[
				-1.8776023387908936,
				-0.3137545585632324,
				-1.3923252820968628
			],
			"type":"VEC3"
		},
		{
			"bufferView":57,
			"componentType":5126,
			"count":4608,
			"type":"VEC3"
		},
		{
			"bufferView":58,
			"componentType":5126,
			"count":4608,
			"type":"VEC2"
		},
		{
			"bufferView":59,
			"componentType":5123,
			"count":27648,
			"type":"SCALAR"
		},
		{
			"bufferView":60,
			"componentType":5126,
			"count":4960,
			"max":[
				2.233109712600708,
				-0.1602647602558136,
				1.8786896467208862
			],
			"min":[
				-2.23310923576355,
				-0.39455488324165344,
				-2.2687573432922363
			],
			"type":"VEC3"
		},
		{
			"bufferView":61,
			"componentType":5126,
			"count":4960,
			"type":"VEC3"
		},
		{
			"bufferView":62,
			"componentType":5126,
			"count":4960,
			"type":"VEC2"
		},
		{
			"bufferView":63,
			"componentType":5123,
			"count":28800,
			"type":"SCALAR"
		}
	],
	"bufferViews":[
		{
			"buffer":0,
			"byteLength":190992,
			"byteOffset":0,
			"target":34962
		},
		{
			"buffer":0,
			"byteLength":190992,
			"byteOffset":190992,
			"target":34962
		},
		{
			"buffer":0,
			"byteLength":127328,
			"byteOffset":381984,
			"target":34962
		},
		{
			"buffer":0,
			"byteLength":190848,
			"byteOffset":509312,
			"target":34963
		},
		{
			"buffer":0,
			"byteLength":168696,
			"byteOffset":700160,
			"target":34962
		},
		{
			"buffer":0,
			"byteLength":168696,
			"byteOffset":868856,
			"target":34962
		},
		{
			"buffer":0,
			"byteLength":112464,
			"byteOffset":1037552,
			"target":34962
		},
		{
			"buffer":0,
			"byteLength":156672,
			"byteOffset":1150016,
			"target":34963
		},
		{
			"buffer":0,
			"byteLength":55296,
			"byteOffset":1306688,
			"target":34962
		},
		{
			"buffer":0,
			"byteLength":55296,
			"byteOffset":1361984,
			"target":34962
		},
		{
			"buffer":0,
			"byteLength":36864,
			"byteOffset":1417280,
			"target":34962
		},
		{
			"buffer":0,
			"byteLength":55296,
			"byteOffset":1454144,
			"target":34963
		},
		{
			"buffer":0,
			"byteLength":8736,
			"byteOffset":1509440,
			"target":34962
		},
		{
			"buffer":0,
			"byteLength":8736,
			"byteOffset":1518176,
			"target":34962
		},
		{
			"buffer":0,
			"byteLength":5824,
			"byteOffset":1526912,
			"target":34962
		},
		{
			"buffer":0,
			"byteLength":6912,
			"byteOffset":1532736,
			"target":34963
		},
		{
			"buffer":0,
			"byteLength":212784,
			"byteOffset":1539648,
			"target":34962
		},
		{
			"buffer":0,
			"byteLength":212784,
			"byteOffset":1752432,
			"target":34962
		},
		{
			"buffer":0,
			"byteLength":141856,
			"byteOffset":1965216,
			"target":34962
		},
		{
			"buffer":0,
			"byteLength":212736,
			"byteOffset":2107072,
			"target":34963
		},
		{
			"buffer":0,
			"byteLength":81552,
			"byteOffset":2319808,
			"target":34962
		},
		{
			"buffer":0,
			"byteLength":81552,
			"byteOffset":2401360,
			"target":34962
		},
		{
			"buffer":0,
			"byteLength":54368,
			"byteOffset":2482912,
			"target":34962
		},
		{
			"buffer":0,
			"byteLength":81408,
			"byteOffset":2537280,
			"target":34963
		},
		{
			"buffer":0,
			"byteLength":1248,
			"byteOffset":2618688,
			"target":34962
		},
		{
			"buffer":0,
			"byteLength":1248,
			"byteOffset":2619936,
			"target":34962
		},
		{
			"buffer":0,
			"byteLength":832,
			"byteOffset":2621184,
			"target":34962
		},
		{
			"buffer":0,
			"byteLength":576,
			"byteOffset":2622016,
			"target":34963
		},
		{
			"buffer":0,
			"byteLength":8640,
			"byteOffset":2622592,
			"target":34962
		},
		{
			"buffer":0,
			"byteLength":8640,
			"byteOffset":2631232,
			"target":34962
		},
		{
			"buffer":0,
			"byteLength":5760,
			"byteOffset":2639872,
			"target":34962
		},
		{
			"buffer":0,
			"byteLength":8016,
			"byteOffset":2645632,
			"target":34963
		},
		{
			"buffer":0,
			"byteLength":4800,
			"byteOffset":2653648,
			"target":34962
		},
		{
			"buffer":0,
			"byteLength":4800,
			"byteOffset":2658448,
			"target":34962
		},
		{
			"buffer":0,
			"byteLength":3200,
			"byteOffset":2663248,
			"target":34962
		},
		{
			"buffer":0,
			"byteLength":4272,
			"byteOffset":2666448,
			"target":34963
		},
		{
			"buffer":0,
			"byteLength":32256,
			"byteOffset":2670720,
			"target":34962
		},
		{
			"buffer":0,
			"byteLength":32256,
			"byteOffset":2702976,
			"target":34962
		},
		{
			"buffer":0,
			"byteLength":21504,
			"byteOffset":2735232,
			"target":34962
		},
		{
			"buffer":0,
			"byteLength":31680,
			"byteOffset":2756736,
			"target":34963
		},
		{
			"buffer":0,
			"byteLength":11520,
			"byteOffset":2788416,
			"target":34962
		},
		{
			"buffer":0,
			"byteLength":11520,
			"byteOffset":2799936,
			"target":34962
		},
		{
			"buffer":0,
			"byteLength":7680,
			"byteOffset":2811456,
			"target":34962
		},
		{
			"buffer":0,
			"byteLength":11520,
			"byteOffset":2819136,
			"target":34963
		},
		{
			"buffer":0,
			"byteLength":2640,
			"byteOffset":2830656,
			"target":34962
		},
		{
			"buffer":0,
			"byteLength":2640,
			"byteOffset":2833296,
			"target":34962
		},
		{
			"buffer":0,
			"byteLength":1760,
			"byteOffset":2835936,
			"target":34962
		},
		{
			"buffer":0,
			"byteLength":2376,
			"byteOffset":2837696,
			"target":34963
		},
		{
			"buffer":0,
			"byteLength":960,
			"byteOffset":2840072,
			"target":34962
		},
		{
			"buffer":0,
			"byteLength":960,
			"byteOffset":2841032,
			"target":34962
		},
		{
			"buffer":0,
			"byteLength":640,
			"byteOffset":2841992,
			"target":34962
		},
		{
			"buffer":0,
			"byteLength":720,
			"byteOffset":2842632,
			"target":34963
		},
		{
			"buffer":0,
			"byteLength":16752,
			"byteOffset":2843352,
			"target":34962
		},
		{
			"buffer":0,
			"byteLength":16752,
			"byteOffset":2860104,
			"target":34962
		},
		{
			"buffer":0,
			"byteLength":11168,
			"byteOffset":2876856,
			"target":34962
		},
		{
			"buffer":0,
			"byteLength":8136,
			"byteOffset":2888024,
			"target":34963
		},
		{
			"buffer":0,
			"byteLength":55296,
			"byteOffset":2896160,
			"target":34962
		},
		{
			"buffer":0,
			"byteLength":55296,
			"byteOffset":2951456,
			"target":34962
		},
		{
			"buffer":0,
			"byteLength":36864,
			"byteOffset":3006752,
			"target":34962
		},
		{
			"buffer":0,
			"byteLength":55296,
			"byteOffset":3043616,
			"target":34963
		},
		{
			"buffer":0,
			"byteLength":59520,
			"byteOffset":3098912,
			"target":34962
		},
		{
			"buffer":0,
			"byteLength":59520,
			"byteOffset":3158432,
			"target":34962
		},
		{
			"buffer":0,
			"byteLength":39680,
			"byteOffset":3217952,
			"target":34962
		},
		{
			"buffer":0,
			"byteLength":57600,
			"byteOffset":3257632,
			"target":34963
		}
	],
	"buffers":[
		{
			"byteLength":3315232,
			"uri":"scene.bin"
		}
	]
}
